<svg xmlns="http://www.w3.org/2000/svg" xmlns:xlink="http://www.w3.org/1999/xlink" width="654.841" height="356.159" data-name="Layer 1"><rect id="backgroundrect" width="100%" height="100%" x="0" y="0" fill="none" stroke="none"/><defs><linearGradient id="linear-gradient" x1=".321" x2="1.012" y1="2.636" y2="-5.913"><stop offset="0" stop-opacity="0"/><stop offset=".99"/></linearGradient><linearGradient id="linear-gradient-2" x1="245.36" x2="144.54" y1="249.17" y2="171.72" xlink:href="#linear-gradient"/><linearGradient id="linear-gradient-3" x1="305.42" x2="194.02" y1="112.5" y2="268.08" xlink:href="#linear-gradient"/><linearGradient id="linear-gradient-4" x1=".721" x2=".153" y1=".334" y2="1.037"><stop offset="0" stop-color="#e5c5d5"/><stop offset=".42" stop-color="#ead4d1"/><stop offset="1" stop-color="#f0e9cb"/></linearGradient><linearGradient id="linear-gradient-5" x1="307.91" x2="319.1" y1="159.87" y2="128.82" xlink:href="#linear-gradient"/><linearGradient id="linear-gradient-6" x1="334.32" x2="344.49" y1="129.99" y2="129.99" xlink:href="#linear-gradient-4"/><linearGradient id="linear-gradient-7" x1="310.98" x2="327.75" y1="126.38" y2="129.01" xlink:href="#linear-gradient-4"/><linearGradient id="linear-gradient-8" x1="284.92" x2="304.68" y1="143.98" y2="143.98" xlink:href="#linear-gradient-4"/><linearGradient id="linear-gradient-9" x1="274.63" x2="276.37" y1="158.98" y2="250.09" xlink:href="#linear-gradient"/></defs><title>Waiting the process</title><g class="currentLayer"><title>Layer 1</title><path style="isolation:isolate" id="svg_1" fill="#e98a8a" fill-opacity="1" d="M2.5300000762939447,140.99999908447265 c-1.26,39.64 29.57,77.86 68.58,85 c25.31,4.640000000000001 53.09,-2.22 76,9.43 c14.11,7.17 24.22,20.41 37.73,28.66 c17.05,10.4 38,12 58,11.1 c21.19,-0.9400000000000001 43.66,-5 59.13,-19.49 c18.39,-17.24 22.6,-45.05 38.45,-64.65 c13.25,-16.39 34.5,-27 41.68,-46.77 c6.6,-18.21 -1.4300000000000002,-39.21 -15.08,-52.95 s-32,-21.63 -50.1,-28.58 s-36.55,-13.43 -52.13,-25.2 c-11.22,-8.47 -20.42,-20.47 -33.24,-26.68 c-29.49,-14.28 -77.06,-15.23 -105.35,1.59 C89.47000007629394,34.30999908447265 77.05000007629394,85.27999908447265 39.01000007629395,104.77999908447265 c-12.25,6.28 -27.72,9.92 -33.68,22.34 c-2.06,4.28 -2.6500000000000004,9.13 -2.8,13.88" opacity=".18"/><path id="svg_2" fill="#fff" d="M433.79000007629395,169.39999908447265 a30.76,30.76 0 0 1 -30.77,30.77 h-370 a30.77,30.77 0 0 1 -30.77,-30.77"/><path id="svg_3" fill="#fff" d="M2.220000076293946,169.39999908447265 a30.77,30.77 0 0 1 30.77,-30.77 h370 a30.77,30.77 0 0 1 30.77,30.77"/><path id="svg_4" fill="#eb1a1a" fill-opacity="1" stroke="#d50b0b" stroke-opacity="1" d="M436.02000007629397,169.39999908447265 a33,33 0 0 1 -33,33 h-370 a33,33 0 0 1 -33,-33"/><path id="svg_5" fill="#eb1a1a" fill-opacity="1" d="M7.629394538355427e-8,169.39999908447265 a33,33 0 0 1 33,-33 h370 a33,33 0 0 1 33,33"/><path id="svg_6" fill="#fff" d="M431.5700000762939,169.39999908447265 a28.57,28.57 0 0 0 -28.55,-28.54 h-370 a28.55,28.55 0 1 0 0,57.09 h370 a28.58,28.58 0 0 0 28.55,-28.55"/><path id="svg_7" fill="url(#linear-gradient)" d="M354.25000007629393,141.36999908447265 a3.94,3.94 0 0 1 -1.37,1.08 c-4,2.3200000000000003 -8.14,4.66 -12.63,5.88 A47.85,47.85 0 0 1 329.92000007629395,149.70999908447266 a185,185 0 0 1 -22.83,-0.37000000000000005 c-14.39,-1.13 -28.61,-3.94 -43,-5 c-14.24,-1 -28.56,-0.31000000000000005 -42.82,-1.2 c-1.83,-0.12000000000000001 -4,-0.43000000000000005 -4.86,-2 a4,4 0 0 1 0.09000000000000002,-3.5700000000000003 c1.92,-4 7.22,-4.63 11.64,-4.75 c30.94,-0.8400000000000001 61.91,-1.6700000000000002 92.84,-0.6300000000000001 c5.43,0.19000000000000003 10.91,0.44000000000000006 16.17,1.77 a103,103 0 0 0 11.86,2.21 C351.09000007629396,136.37999908447264 356.33000007629397,138.34999908447264 354.25000007629393,141.36999908447265 z" class="selected"/><rect id="svg_8" width="330.82" height="47.17" x="8.74" y="145.63" fill="#e84141" fill-opacity="1" rx="23.59"/><path id="svg_9" fill="url(#linear-gradient-2)" d="M183.67000007629395,150.44999908447267 a12,12 0 0 0 -5.37,1.27 a8.35,8.35 0 0 0 -3.5,6.21 a45.39,45.39 0 0 0 0.12000000000000001,7.37 c0.27,7.17 -1.61,14.22 -3.46,21.15 c-1.52,5.66 -3.34,11.76 -8.09,15.19 a3.12,3.12 0 0 1 -3,0.7100000000000001 c-1,-0.45 -1.3,-1.6500000000000001 -1.49,-2.7 c-3.08,-17.42 3.21,-35.11 3.21,-52.8 c0,-3.48 0,-7.54 2.7600000000000002,-9.67 c1.71,-1.31 4,-1.47 6.15,-1.58 l32.83,-1.61 c5.14,-0.25 11.8,-1 16.66,1.13 c6.09,2.6900000000000004 -2.62,6.59 -5.82,8.19 C205.13000007629395,148.11999908447265 194.23000007629395,149.61999908447265 183.67000007629395,150.44999908447267 z"/><path id="svg_10" fill="#3e3e54" d="M220.92000007629395,126.83999908447265 c-0.6100000000000001,4.17 -1.8,8.53 -4.94,11.34 c-2.37,2.13 -5.5600000000000005,3.08 -8.67,3.81 a96,96 0 0 1 -33.61,1.8 c-1.59,-0.19000000000000003 -3.55,-0.28 -4.46,1 a4.38,4.38 0 0 0 -0.52,2.24 A499.15,499.15 0 0 1 163.56000007629393,197.70999908447266 c-0.44000000000000006,2.7800000000000002 -0.93,5.66 -2.54,8 c-3.7,5.29 -11.35,5.38 -17.79,4.94 a3.13,3.13 0 0 1 -2.16,-0.7100000000000001 c-1.1600000000000001,-1.26 0.29000000000000004,-3.14 1.5,-4.34 c5.1,-5 7.33,-12.35 7.8,-19.49 s-0.6200000000000001,-14.28 -1.22,-21.42 a154.26,154.26 0 0 1 2.36,-42.67 c0.5900000000000001,-3 1.33,-6.1 3.38,-8.35 c0.8800000000000001,-1 21.61,-2.26 22.77,-2.83 c-1.07,-1 -15.24,-9.19 -16.28,-10.26 c-4.87,8.56 -18.13,28.42 -21.61,37.64 a163.87,163.87 0 0 1 -32,-0.7300000000000001 c-1.19,-3 13,-8.54 16.15,-8.29 c5.93,-16.8 14,-36.33 24.59,-50.69 c3.66,-5 8,-10.08 14.07,-11.44 c7.95,-1.79 15.61,3.45 22.07,8.41 C202.88000007629395,89.39999908447265 224.82000007629395,100.47999908447267 220.92000007629395,126.83999908447265 z"/><path id="svg_11" fill="#fff" d="M268.5700000762939,80.70999908447266 c4.640000000000001,-2.07 9.620000000000001,-4.37 14.61,-3.38 c3.7800000000000002,0.7600000000000001 6.93,3.31 9.85,5.83 q5.24,4.49 10.3,9.18 c3,2.79 6.19,6.07 6.32,10.18 c0.11000000000000001,3.47 4.42,34.56 1,34.79 c-7.51,0.5 -56.32,0.35000000000000003 -94.63,0.8500000000000001 c-3.92,0.05000000000000001 -2.94,1 -5.95,-1.49 c-8.43,-7 -8.27,-33.47 2.14,-39.08 c7.5600000000000005,-4.07 18.56,-4.06 26.84,-6.32 C249.20000007629392,88.50999908447267 258.61000007629394,84.04999908447266 268.5700000762939,80.70999908447266 z"/><path id="svg_12" fill="url(#linear-gradient-3)" d="M254.15000007629396,85.99999908447265 c-6.59,6.77 -13.79,15.59 -15.9,24.79 c-0.7400000000000001,3.23 4,11.95 49.7,3.26 c1.33,-0.26 8.48,-9.25 7.88,-11.65 s-16.63,-1.1400000000000001 -19.07,-1.52 c-1.13,-0.18000000000000002 -2.2800000000000002,0.05000000000000001 -3.4,-0.12000000000000001 s-8.48,2.74 -8.49,1.6 c0,-1.42 7.84,-5.83 9.19,-6.28 c6.67,-2.2 26.28,-3.8200000000000003 10,-15 C274.9400000762939,74.86999908447265 260.67000007629395,79.34999908447266 254.15000007629396,85.99999908447265 z"/><path id="svg_13" fill="#fff" d="M288.1900000762939,124.55999908447265 a9.12,9.12 0 0 0 0.43000000000000005,4.92 a8.870000000000001,8.870000000000001 0 0 0 3.83,3.64 c10.52,6.19 23.51,5.79 35.7,5.2 c2.59,-0.13 17.65,0.09000000000000002 20,-1 c4.36,-2 8.52,-8.39 3.88,-18.4 C349.67000007629395,113.70999908447266 336.8800000762939,95.57999908447266 335.390000076294,90.00999908447267 c-3.8200000000000003,-1.28 -8.36,-0.55 -9.26,3.38 s11.73,24.65 9.26,27.67 c-5.23,6.39 -16.4,-10 -27.16,-22.29 C302.09000007629396,91.77999908447265 289.12000007629393,116.92999908447266 288.1900000762939,124.55999908447265 z"/><path id="svg_14" fill="url(#linear-gradient-4)" d="M298.15000007629396,95.30999908447265 a13.69,13.69 0 0 0 -3,3.5700000000000003 a4.73,4.73 0 0 0 -0.12000000000000001,4.47 c1.11,1.87 0.7300000000000001,6.19 13.75,2.18 c1.15,-0.35000000000000003 5.12,-9.22 5.12,-10.43 a9.08,9.08 0 0 0 -1.92,-6 C307.09000007629396,83.46999908447265 301.4500000762939,92.13999908447266 298.15000007629396,95.30999908447265 z"/><path id="svg_15" fill="url(#linear-gradient-5)" d="M294.75000007629393,104.24999908447265 l4,-2.45 a0.77,0.77 0 0 1 0.28,-0.12000000000000001 a0.8500000000000001,0.8500000000000001 0 0 1 0.55,0.15000000000000002 A9.57,9.57 0 0 0 309.8200000762939,100.70999908447266 c-1.6,-0.18000000000000002 -2.91,-1.28 -4.2,-2.24 a35.64,35.64 0 0 0 -4.75,-3 a2.8,2.8 0 0 0 -1.25,-0.41000000000000003 a2.66,2.66 0 0 0 -1.8,1 a14.89,14.89 0 0 0 -3.48,5.4"/><path id="svg_16" fill="#fff" d="M253.90000007629396,80.24999908447266 c-6.59,6.76 -13.79,15.58 -15.9,24.78 c-0.7400000000000001,3.23 -3.7600000000000002,15 41.95,6.33 c1.33,-0.25 1.06,-2.48 1.26,-3.8200000000000003 a18.82,18.82 0 0 0 0.13,-7.36 c-0.6000000000000001,-2.4 -2.39,-4.68 -4.83,-5.06 c-1.13,-0.18000000000000002 -2.2800000000000002,0.05000000000000001 -3.4,-0.12000000000000001 S264.67000007629395,97.70999908447266 264.67000007629395,96.59999908447264 c0,-1.42 7.84,-5.83 9.19,-6.27 c6.67,-2.21 26.28,-3.83 10,-15 C274.67000007629395,69.10999908447266 260.3800000762939,73.58999908447265 253.90000007629396,80.24999908447266 z"/><path id="svg_17" fill="#fff" d="M253.90000007629396,80.24999908447266 c-6.59,6.76 -13.79,15.58 -15.9,24.78 c-0.7400000000000001,3.23 -3.7600000000000002,15 41.95,6.33 c1.33,-0.25 1.06,-2.48 1.26,-3.8200000000000003 a18.82,18.82 0 0 0 0.13,-7.36 c-0.6000000000000001,-2.4 -2.39,-4.68 -4.83,-5.06 c-1.13,-0.18000000000000002 -2.2800000000000002,0.05000000000000001 -3.4,-0.12000000000000001 S264.67000007629395,97.70999908447266 264.67000007629395,96.59999908447264 c0,-1.42 7.84,-5.83 9.19,-6.27 c6.67,-2.21 26.28,-3.83 10,-15 C274.67000007629395,69.10999908447266 260.3800000762939,73.58999908447265 253.90000007629396,80.24999908447266 z"/><path id="svg_18" fill="url(#linear-gradient-6)" d="M330.53000007629396,73.56999908447266 c1.59,0.09000000000000002 2.58,1.87 2.6500000000000004,3.46 s-0.46,3.17 -0.44000000000000006,4.77 a14.78,14.78 0 0 0 0.8,3.92 c0.7000000000000001,2.41 1.3,5.61 -1.05,7.35 a4.84,4.84 0 0 1 -4.75,0.28 c-4.9,-2 -4.37,-6.46 -2,-10.24 C326.30000007629394,82.28999908447267 330.53000007629396,73.56999908447266 330.53000007629396,73.56999908447266 z"/><path id="svg_19" fill="url(#linear-gradient-7)" d="M296.67000007629395,86.47999908447267 c-0.23,3.85 0.21000000000000002,7.88 2.4,11.14 s6.51,5.48 10.48,4.5 c2.59,-0.6500000000000001 4.63,-2.47 6.46,-4.3 c6.16,-6.16 11.54,-13.57 12.42,-22 a12.09,12.09 0 0 0 -1.21,-7.42 c-1.3800000000000001,-2.36 -3.85,-4 -6.39,-5.24 a21.41,21.41 0 0 0 -8.7,-2.48 a12.66,12.66 0 0 0 -7.6,2.23 c-2,1.4 -2.49,3.49 -3.34,5.69 C298.93000007629394,74.38999908447266 297.0100000762939,80.33999908447265 296.67000007629395,86.47999908447267 z"/><path id="svg_20" fill="#3e3e54" d="M287.48000007629395,89.01999908447266 l7.3,-10.72 a2.5,2.5 0 0 1 3.64,-0.54 l7,5.68 a2.52,2.52 0 0 1 0.52,3.34 l-14,21.13 a2.52,2.52 0 0 1 -3.7600000000000002,0.49000000000000005 l-4,-3.56 a2.49,2.49 0 0 1 -0.7400000000000001,-2.5700000000000003 L287.140000076294,89.70999908447266 A2.58,2.58 0 0 1 287.48000007629395,89.01999908447266 z"/><path id="svg_21" fill="#3e3e54" d="M286.04000007629395,89.01999908447266 l7.3,-10.72 a2.5,2.5 0 0 1 3.64,-0.54 l7,5.68 a2.52,2.52 0 0 1 0.52,3.34 l-14,21.13 a2.52,2.52 0 0 1 -3.7600000000000002,0.49000000000000005 l-4,-3.56 a2.49,2.49 0 0 1 -0.7400000000000001,-2.5700000000000003 L285.67000007629395,89.70999908447266 A2.58,2.58 0 0 1 286.04000007629395,89.01999908447266 z"/><path id="svg_22" fill="url(#linear-gradient-8)" d="M278.21000007629397,95.33999908447265 a69.86,69.86 0 0 1 4.85,-7 a6.13,6.13 0 0 1 2,-1.6700000000000002 a2.58,2.58 0 0 1 2.5,0.07 a0.54,0.54 0 0 1 0.21000000000000002,0.24000000000000002 a0.55,0.55 0 0 1 -0.06000000000000001,0.35000000000000003 a7.22,7.22 0 0 1 -1.21,2 a7.38,7.38 0 0 0 -0.9400000000000001,1.15 a1.5,1.5 0 0 0 -0.1,1.42 a2.17,2.17 0 0 0 0.5800000000000001,0.5900000000000001 l2.62,2.07 a13.7,13.7 0 0 0 2.33,1.59 c1,0.52 2.2,0.8300000000000001 2.87,1.75 c1.08,1.48 0.13,3 -0.17,4.53 a4.16,4.16 0 0 1 -2.3,3.33 a25.14,25.14 0 0 1 -8,3.06 c-2.07,0.41000000000000003 -4.36,0.52 -6.13,-0.6200000000000001 a5.77,5.77 0 0 1 -2.62,-3.77 a9,9 0 0 1 0.23,-1.9500000000000002 a6.14,6.14 0 0 1 0.21000000000000002,-2.48 a12.32,12.32 0 0 1 1.6700000000000002,-2.51 C277.25000007629393,96.75999908447267 277.73000007629395,96.05999908447265 278.21000007629397,95.33999908447265 z"/><path id="svg_23" fill="#3e3e54" d="M299.16000007629395,61.91999908447265 a9.870000000000001,9.870000000000001 0 0 0 -2.12,7.24 a1.3900000000000001,1.3900000000000001 0 0 0 0.21000000000000002,0.6700000000000002 a1.44,1.44 0 0 0 0.9400000000000001,0.4 a63.11,63.11 0 0 0 10.64,0.6600000000000001 c-0.44000000000000006,1.09 0.39000000000000007,2.3 1.4100000000000001,2.88 s2.21,0.7500000000000001 3.25,1.28 a5.49,5.49 0 0 1 2.8200000000000003,3.5300000000000002 c0.21000000000000002,0.8500000000000001 0.22000000000000003,1.73 0.43000000000000005,2.5700000000000003 a2.7600000000000002,2.7600000000000002 0 0 0 1.49,2 c0.47000000000000003,0.17 1.05,0.2 1.3,0.6300000000000001 a1.42,1.42 0 0 1 0.1,0.8200000000000001 a24,24 0 0 1 -1.3900000000000001,5.91 c2.11,-1.19 1.59,-5 3.85,-5.93 a3.51,3.51 0 0 1 1.06,3.92 a7.71,7.71 0 0 1 -2.63,3.39 c3.21,-2.75 5.15,-6.66 7,-10.46 c0.93,-1.9 1.85,-4.18 0.8300000000000001,-6 a6.47,6.47 0 0 1 -0.79,-1.4300000000000002 a3.3200000000000003,3.3200000000000003 0 0 1 0.05000000000000001,-1.4 a11.91,11.91 0 0 0 -0.26,-5.57 a10.79,10.79 0 0 0 -2.13,-3.56 a17.42,17.42 0 0 0 -12.63,-5.84 c-2.37,-0.07 -4.55,0.6700000000000002 -6.85,0.8900000000000001 A9.39,9.39 0 0 0 299.16000007629395,61.91999908447265 z"/><path id="svg_24" fill="url(#linear-gradient-9)" d="M207.37000007629393,133.82999908447266 s87.8,-6.68 93.81,-6 s20.94,10.51 20.94,10.51 L211.67000007629395,139.16999908447266 A55.76,55.76 0 0 1 207.37000007629393,133.82999908447266 z"/><path id="svg_25" fill="#fff" d="M182.14000007629394,176.76999908447266 a17.6,17.6 0 0 0 0.12000000000000001,-2.3200000000000003 v-8.51 a18.49,18.49 0 0 0 -0.12000000000000001,-2.3 c0.7400000000000001,0 1.3,0 2.31,0 h3.44 c3.12,0 4.83,1.49 4.83,4.23 s-1.79,4.47 -4.84,4.47 h-2.49 v2 a19.84,19.84 0 0 0 0.13,2.37 zm5.6,-7.06 a1.56,1.56 0 0 0 1.7400000000000002,-1.7000000000000002 a1.52,1.52 0 0 0 -1.7400000000000002,-1.6500000000000001 h-2.35 V169.70999908447266 z"/><path id="svg_26" fill="#fff" d="M202.08000007629394,176.76999908447266 a16.77,16.77 0 0 0 -0.77,-2.45 c-0.51,-1.37 -0.7000000000000001,-1.73 -1.09,-2.08 a1.71,1.71 0 0 0 -1.23,-0.42000000000000004 h-1.6 v2.58 a15.61,15.61 0 0 0 0.13,2.37 h-3.38 a16.2,16.2 0 0 0 0.12000000000000001,-2.36 v-8.46 a17.64,17.64 0 0 0 -0.12000000000000001,-2.31 c0.6900000000000002,0 1.27,0 2.34,0 h4.09 c2.55,0 4,1.32 4,3.58 a3.06,3.06 0 0 1 -2.42,3.37 c0.8,0.25 1.17,0.6100000000000001 1.6700000000000002,1.73 c0.23,0.5 0.45,1 1.1600000000000001,2.74 c0.18000000000000002,0.44000000000000006 0.36000000000000004,0.8300000000000001 0.7600000000000001,1.6600000000000001 zm-2.24,-7.640000000000001 a1.3800000000000001,1.3800000000000001 0 0 0 1.5,-1.46 c0,-0.8800000000000001 -0.5,-1.34 -1.48,-1.34 h-2.47 v2.8 z"/><path id="svg_27" fill="#fff" d="M219.36000007629394,170.16999908447266 c0,4.15 -2.5300000000000002,6.9 -6.36,6.9 s-6.33,-2.6900000000000004 -6.33,-6.85 s2.48,-6.8100000000000005 6.35,-6.8100000000000005 S219.36000007629394,166.04999908447266 219.36000007629394,170.16999908447266 zm-3.27,0 c0,-2.55 -1.17,-4.09 -3.07,-4.09 s-3.1,1.56 -3.1,4.09 s1.18,4.15 3.1,4.15 S216.09000007629393,172.77999908447265 216.09000007629393,170.19999908447267 z"/><path id="svg_28" fill="#fff" d="M229.33000007629394,168.24999908447265 a2.36,2.36 0 0 0 -2.49,-2.14 c-1.92,0 -3,1.51 -3,4.11 s1.1600000000000001,4.11 3.11,4.11 a2.49,2.49 0 0 0 2.06,-1 a2.59,2.59 0 0 0 0.47000000000000003,-1.35 l3.27,0.49000000000000005 a6,6 0 0 1 -1.3,2.88 a5.67,5.67 0 0 1 -4.41,1.71 a6.38,6.38 0 0 1 -4.65,-1.73 a7.26,7.26 0 0 1 -1.83,-5.12 a7.13,7.13 0 0 1 1.9100000000000001,-5.18 a6.37,6.37 0 0 1 4.51,-1.6300000000000001 a5.47,5.47 0 0 1 4.640000000000001,2.06 a4.91,4.91 0 0 1 1,2.15 z"/><path id="svg_29" fill="#fff" d="M244.07000007629395,176.87999908447264 a19.83,19.83 0 0 0 -2.59,-0.11000000000000001 h-4.95 c-1.2,0 -1.6400000000000001,0 -2.3200000000000003,0.05000000000000001 a13.78,13.78 0 0 0 0.13,-2.3 v-8.58 a15.79,15.79 0 0 0 -0.13,-2.3 c0.6500000000000001,0 1.09,0 2.3200000000000003,0 h5 a19.16,19.16 0 0 0 2.35,-0.11000000000000001 v2.94 a19.16,19.16 0 0 0 -2.35,-0.11000000000000001 h-4.09 V168.70999908447266 h3.4 a19.68,19.68 0 0 0 2.36,-0.11000000000000001 v2.91 a19.12,19.12 0 0 0 -2.36,-0.11000000000000001 h-3.4 v2.64 h4.06 a20.83,20.83 0 0 0 2.56,-0.11000000000000001 z"/><path id="svg_30" fill="#fff" d="M248.55000007629394,172.50999908447267 a2.14,2.14 0 0 0 0.41000000000000003,1.1600000000000001 a2.2800000000000002,2.2800000000000002 0 0 0 1.84,0.7400000000000001 c1.21,0 1.94,-0.53 1.94,-1.4100000000000001 a1.18,1.18 0 0 0 -0.6600000000000001,-1.1 a12.620000000000001,12.620000000000001 0 0 0 -2.36,-0.6500000000000001 a6,6 0 0 1 -2.5300000000000002,-0.91 a3.54,3.54 0 0 1 -1.53,-3 c0,-2.42 1.9500000000000002,-4 5.05,-4 a5.12,5.12 0 0 1 4.37,1.8 a4.5,4.5 0 0 1 0.79,1.8800000000000001 l-3.34,0.37000000000000005 c-0.19000000000000003,-1 -0.7500000000000001,-1.45 -1.9500000000000002,-1.45 c-1,0 -1.6600000000000001,0.52 -1.6600000000000001,1.24 a1.08,1.08 0 0 0 0.7400000000000001,1 a9.44,9.44 0 0 0 2.17,0.52 a7.640000000000001,7.640000000000001 0 0 1 2.54,0.8900000000000001 a3.5,3.5 0 0 1 1.7000000000000002,3.21 a3.93,3.93 0 0 1 -1.1,2.89 a5.73,5.73 0 0 1 -4.14,1.34 a7.43,7.43 0 0 1 -3.5,-0.77 a3.72,3.72 0 0 1 -1.7000000000000002,-2 a5.75,5.75 0 0 1 -0.35000000000000003,-1.46 z"/><path id="svg_31" fill="#fff" d="M260.5700000762939,172.50999908447267 a2,2 0 0 0 0.41000000000000003,1.1600000000000001 a2.25,2.25 0 0 0 1.84,0.7400000000000001 c1.21,0 1.9300000000000002,-0.53 1.9300000000000002,-1.4100000000000001 a1.18,1.18 0 0 0 -0.6600000000000001,-1.1 a12.34,12.34 0 0 0 -2.36,-0.6500000000000001 a6,6 0 0 1 -2.5300000000000002,-0.91 a3.54,3.54 0 0 1 -1.53,-3 c0,-2.42 1.9500000000000002,-4 5.05,-4 a5.12,5.12 0 0 1 4.37,1.8 a4.37,4.37 0 0 1 0.79,1.8800000000000001 l-3.33,0.37000000000000005 c-0.19000000000000003,-1 -0.7600000000000001,-1.45 -1.9500000000000002,-1.45 c-1,0 -1.6700000000000002,0.52 -1.6700000000000002,1.24 a1.08,1.08 0 0 0 0.7400000000000001,1 a9.44,9.44 0 0 0 2.17,0.52 a7.8,7.8 0 0 1 2.55,0.8900000000000001 a3.51,3.51 0 0 1 1.6900000000000002,3.21 a3.89,3.89 0 0 1 -1.1,2.89 a5.7,5.7 0 0 1 -4.13,1.34 a7.44,7.44 0 0 1 -3.51,-0.77 a3.72,3.72 0 0 1 -1.7000000000000002,-2 a5.83,5.83 0 0 1 -0.3400000000000001,-1.46 z"/><path id="svg_32" fill="#fff" d="M285.1900000762939,166.23999908447266 a12.06,12.06 0 0 0 -2.15,3.16 a19.35,19.35 0 0 0 -2.22,7.37 h-3.63 A22.15,22.15 0 0 1 279.0700000762939,170.70999908447266 a24.86,24.86 0 0 1 2.58,-4.22 H277.17000007629395 a18.47,18.47 0 0 0 -2.37,0.11000000000000001 v-3 a21.43,21.43 0 0 0 2.54,0.11000000000000001 H282.67000007629395 c1.45,0 1.8900000000000001,0 2.5300000000000002,-0.06000000000000001 z"/><path id="svg_33" fill="#fff" d="M290.43000007629394,168.10999908447266 c0,0.08000000000000002 0,0.23 -0.05000000000000001,0.5 a4.1,4.1 0 0 1 2.55,-0.7500000000000001 a4.57,4.57 0 0 1 3.38,1.29 a4.27,4.27 0 0 1 1.18,3.14 c0,3 -2,4.8100000000000005 -5.32,4.8100000000000005 a5.23,5.23 0 0 1 -4.45,-1.9300000000000002 a5.07,5.07 0 0 1 -0.79,-1.7600000000000002 l3.16,-0.49000000000000005 a1.8800000000000001,1.8800000000000001 0 0 0 2.06,1.53 a2,2 0 0 0 2.21,-2.1 a2.22,2.22 0 0 0 -4.16,-0.91 l-2.92,-0.28 c0.06000000000000001,-0.47000000000000003 0.11000000000000001,-0.8500000000000001 0.16000000000000003,-1.29 l0.42000000000000004,-4.91 c0,-0.33000000000000007 0.05000000000000001,-0.7100000000000001 0.06000000000000001,-1.3 c0.6600000000000001,0 0.8200000000000001,0 1.58,0 h4.7 a19,19 0 0 0 2.59,-0.11000000000000001 v2.75 a24.92,24.92 0 0 0 -2.56,-0.11000000000000001 h-3.6500000000000004 z"/><path id="svg_34" fill="#fff" d="M304.97000007629396,169.87999908447264 a3.79,3.79 0 0 1 -0.9400000000000001,-2.7600000000000002 a3.88,3.88 0 0 1 0.9500000000000001,-2.79 a3.43,3.43 0 0 1 2.44,-0.8900000000000001 a3.37,3.37 0 0 1 2.44,0.8900000000000001 a4.5600000000000005,4.5600000000000005 0 0 1 0,5.57 a3.71,3.71 0 0 1 -4.87,0 zm11,-6.6 l0.8300000000000001,0.6300000000000001 l-10.25,13.3 l-0.8200000000000001,-0.6300000000000001 zm-9.8,3.8200000000000003 c0,1.32 0.41000000000000003,2 1.21,2 s1.2,-0.6700000000000002 1.2,-2 s-0.41000000000000003,-2 -1.2,-2 S306.21000007629397,165.80999908447265 306.21000007629397,167.09999908447264 zm6.54,9 a3.83,3.83 0 0 1 -0.9400000000000001,-2.79 a3.79,3.79 0 0 1 1,-2.7600000000000002 a3.41,3.41 0 0 1 2.45,-0.9 c2.14,0 3.38,1.35 3.38,3.66 a3.8,3.8 0 0 1 -1,2.8 a3.34,3.34 0 0 1 -2.43,0.9 A3.44,3.44 0 0 1 312.75000007629393,176.12999908447264 zm1.25,-2.8200000000000003 c0,1.36 0.4,2.05 1.21,2.05 s1.21,-0.6800000000000002 1.21,-2.05 s-0.41000000000000003,-1.9300000000000002 -1.2,-1.9300000000000002 S314.00000007629393,172.03999908447267 314.00000007629393,173.30999908447265 z"/></g></svg>