<svg xmlns="http://www.w3.org/2000/svg" xmlns:xlink="http://www.w3.org/1999/xlink" data-name="Layer 1" width="420.2200012207031" height="406.4200134277344"><rect id="backgroundrect" width="100%" height="100%" x="0" y="0" fill="none" stroke="none"/><defs><linearGradient id="linear-gradient" x1="0.486146479845047" y1="0.22147518396377563" x2="0.5388647317886353" y2="1.2794077396392822"><stop offset="0" stop-color="#fff" stop-opacity="0"/><stop offset="0.95" stop-color="#fff"/></linearGradient><linearGradient id="linear-gradient-2" x1="420.7900085449219" y1="115.41999816894531" x2="518.1799926757812" y2="130.08999633789062" gradientTransform="translate(833.24 229.58) rotate(180)" xlink:href="#linear-gradient"/><linearGradient id="linear-gradient-3" x1="354" y1="-18.75" x2="355.760009765625" y2="124.98999786376953" gradientTransform="translate(710.05 130.47) rotate(180)" xlink:href="#linear-gradient"/><linearGradient id="linear-gradient-4" x1="311.9200134277344" y1="260.1400146484375" x2="302.5299987792969" y2="55.380001068115234" gradientTransform="translate(616.43 358.85) rotate(180)" xlink:href="#linear-gradient"/><linearGradient id="linear-gradient-5" x1="0.5381712913513184" y1="-27.083011627197266" x2="0.48301905393600464" y2="12.964422225952148"><stop offset="0" stop-color="#fff" stop-opacity="0"/><stop offset="0.99" stop-color="#fff"/></linearGradient><linearGradient id="linear-gradient-6" x1="255" y1="383.17999267578125" x2="253.10000610351562" y2="281.8699951171875" xlink:href="#linear-gradient-5"/><linearGradient id="linear-gradient-7" x1="307.07000732421875" y1="382.2200012207031" x2="305.1700134277344" y2="280.8999938964844" xlink:href="#linear-gradient-5"/><linearGradient id="linear-gradient-8" x1="364.92999267578125" y1="381.1199951171875" x2="363.0400085449219" y2="279.82000732421875" xlink:href="#linear-gradient-5"/><linearGradient id="linear-gradient-9" x1="269.9700012207031" y1="382.8999938964844" x2="268.07000732421875" y2="281.5899963378906" xlink:href="#linear-gradient-5"/><linearGradient id="linear-gradient-10" x1="282.1099853515625" y1="382.69000244140625" x2="280.20001220703125" y2="281.3699951171875" xlink:href="#linear-gradient-5"/><linearGradient id="linear-gradient-11" x1="316" y1="382.04998779296875" x2="314.1099853515625" y2="280.7300109863281" xlink:href="#linear-gradient-5"/><linearGradient id="linear-gradient-12" x1="278.2200012207031" y1="382.75" x2="276.32000732421875" y2="281.44000244140625" xlink:href="#linear-gradient-5"/><linearGradient id="linear-gradient-13" x1="321.5" y1="381.94000244140625" x2="319.6099853515625" y2="280.6300048828125" xlink:href="#linear-gradient-5"/><linearGradient id="linear-gradient-14" x1="261.6199951171875" y1="356.8800048828125" x2="259.7200012207031" y2="255.55999755859375" xlink:href="#linear-gradient-5"/><linearGradient id="linear-gradient-15" x1="255" y1="357.010009765625" x2="253.10000610351562" y2="255.69000244140625" xlink:href="#linear-gradient-5"/><linearGradient id="linear-gradient-16" x1="307.07000732421875" y1="356.0299987792969" x2="305.1700134277344" y2="254.7100067138672" xlink:href="#linear-gradient-5"/><linearGradient id="linear-gradient-17" x1="364.92999267578125" y1="354.95001220703125" x2="363.0400085449219" y2="253.6300048828125" xlink:href="#linear-gradient-5"/><linearGradient id="linear-gradient-18" x1="269.9700012207031" y1="356.7300109863281" x2="268.07000732421875" y2="255.41000366210938" xlink:href="#linear-gradient-5"/><linearGradient id="linear-gradient-19" x1="282.1099853515625" y1="356.5" x2="280.20001220703125" y2="255.17999267578125" xlink:href="#linear-gradient-5"/><linearGradient id="linear-gradient-20" x1="316" y1="355.8699951171875" x2="314.1099853515625" y2="254.5500030517578" xlink:href="#linear-gradient-5"/><linearGradient id="linear-gradient-21" x1="278.2200012207031" y1="356.57000732421875" x2="276.32000732421875" y2="255.25999450683594" xlink:href="#linear-gradient-5"/><linearGradient id="linear-gradient-22" x1="321.5" y1="355.7699890136719" x2="319.6099853515625" y2="254.4499969482422" xlink:href="#linear-gradient-5"/><linearGradient id="linear-gradient-23" x1="261.6199951171875" y1="330.70001220703125" x2="259.7200012207031" y2="229.38999938964844" xlink:href="#linear-gradient-5"/><linearGradient id="linear-gradient-24" x1="255" y1="330.8299865722656" x2="253.10000610351562" y2="229.50999450683594" xlink:href="#linear-gradient-5"/><linearGradient id="linear-gradient-25" x1="307.07000732421875" y1="329.8500061035156" x2="305.1700134277344" y2="228.5399932861328" xlink:href="#linear-gradient-5"/><linearGradient id="linear-gradient-26" x1="364.92999267578125" y1="328.7699890136719" x2="363.0400085449219" y2="227.4499969482422" xlink:href="#linear-gradient-5"/><linearGradient id="linear-gradient-27" x1="269.9700012207031" y1="330.54998779296875" x2="268.07000732421875" y2="229.22999572753906" xlink:href="#linear-gradient-5"/><linearGradient id="linear-gradient-28" x1="282.1099853515625" y1="330.32000732421875" x2="280.20001220703125" y2="229" xlink:href="#linear-gradient-5"/><linearGradient id="linear-gradient-29" x1="316" y1="329.67999267578125" x2="314.1099853515625" y2="228.36000061035156" xlink:href="#linear-gradient-5"/><linearGradient id="linear-gradient-30" x1="278.2200012207031" y1="330.3900146484375" x2="276.32000732421875" y2="229.07000732421875" xlink:href="#linear-gradient-5"/><linearGradient id="linear-gradient-31" x1="321.5" y1="329.5799865722656" x2="319.6099853515625" y2="228.25999450683594" xlink:href="#linear-gradient-5"/><linearGradient id="linear-gradient-32" x1="0.0015760718379169703" y1="0.5006458163261414" x2="0.9999631643295288" y2="0.5006458163261414"><stop offset="0" stop-color="#e5c6d6"/><stop offset="0.42" stop-color="#ead4d0"/><stop offset="1" stop-color="#f0e9cb"/></linearGradient><linearGradient id="linear-gradient-33" x1="267.3800048828125" y1="249.25" x2="284.32000732421875" y2="249.25" xlink:href="#linear-gradient-32"/><linearGradient id="linear-gradient-34" x1="322.2200012207031" y1="181.36000061035156" x2="330.07000732421875" y2="181.36000061035156" xlink:href="#linear-gradient-32"/><linearGradient id="linear-gradient-35" x1="287.94000244140625" y1="179.86000061035156" x2="295.9599914550781" y2="179.86000061035156" xlink:href="#linear-gradient-32"/><linearGradient id="linear-gradient-36" x1="301.2799987792969" y1="200.38999938964844" x2="317.7900085449219" y2="200.38999938964844" xlink:href="#linear-gradient-32"/><linearGradient id="linear-gradient-37" x1="-0.0000011286242624919396" y1="0.5000761151313782" x2="1.0007528066635132" y2="0.5000761151313782"><stop offset="0" stop-color="#010101" stop-opacity="0"/><stop offset="0.95" stop-color="#010101"/></linearGradient><linearGradient id="linear-gradient-38" x1="197.4499969482422" y1="246.75" x2="254.8300018310547" y2="246.75" xlink:href="#linear-gradient-37"/><linearGradient id="linear-gradient-39" x1="308.9200134277344" y1="236.4499969482422" x2="307.82000732421875" y2="294.75" xlink:href="#linear-gradient-37"/><linearGradient id="linear-gradient-40" x1="307.67999267578125" y1="333.29998779296875" x2="310.760009765625" y2="306.8999938964844" xlink:href="#linear-gradient-37"/><linearGradient id="linear-gradient-41" x1="306.6199951171875" y1="291.1300048828125" x2="307.5" y2="326.7699890136719" gradientTransform="translate(614.1 617.39) rotate(180)" xlink:href="#linear-gradient-37"/><linearGradient id="linear-gradient-42" x1="201.6699981689453" y1="322.0400085449219" x2="201.9600067138672" y2="395.6700134277344" xlink:href="#linear-gradient-37"/><linearGradient id="linear-gradient-43" x1="218.4199981689453" y1="332.9100036621094" x2="227.8000030517578" y2="369" xlink:href="#linear-gradient-37"/><linearGradient id="linear-gradient-44" x1="194.82000732421875" y1="330.92999267578125" x2="178.97999572753906" y2="369.3500061035156" xlink:href="#linear-gradient-37"/><linearGradient id="linear-gradient-45" x1="207.72999572753906" y1="349.8599853515625" x2="189.25" y2="403.5400085449219" xlink:href="#linear-gradient-37"/></defs><title>code 2</title><g class="currentLayer" style=""><title>Layer 1</title><path d="M403.05000274658204,266.25 c-12.07,17.31 -29,30.63 -42.39,47 c-19.66,24 -32.38,55.16 -59,71.17 c-12.59,7.5600000000000005 -27.16,10.94 -41.44,14.22 c-22.95,5.28 -46.73,10.56 -69.86,6.1 c-17.73,-3.41 -33.82,-12.35 -49.58,-21.17 l-12.47,-7 c-2.75,-1.56 -5.53,-3.09 -8.31,-4.65 l-8.1,-4.54 c-23.78,-13.4 -47.41,-27.38 -67.45,-45.85 C22.12000274658203,301.03 4.370002746582031,274.05 0.6800027465820335,243.92 c-4.28,-34.82 12.1,-71.39 40.92,-91.4 c15.81,-11 34.66,-17.12 50.19,-28.53 c24.51,-18 38,-46.79 54.83,-72.08 c31.19,-46.89 91.17,-69.33 141.68,-36 c19.63,12.94 34.48,32.16 45.39,53 c9.22,17.57 16,36.63 28.26,52.23 c14,17.82 34.38,30.16 46.63,49.23 C426.93000274658203,198.91 422.49000274658204,238.39 403.05000274658204,266.25 z" fill="#ecabab" opacity="0.24" style="isolation:isolate" id="svg_1" class="" fill-opacity="1"/><path d="M143.98000274658204,372.95 c-1.47,1.61 0.9400000000000001,3.85 3,4.63 a118.11,118.11 0 0 0 42.1,7.8 l-2.45,4.17 a131.42,131.42 0 0 0 69,0.36000000000000004 l-3.48,-5.4 l20.21,-1 c3.21,-0.15000000000000002 14.47,1.17 16.6,-1.6800000000000002 c6.13,-8.21 -18.82,-8.53 -21.5,-8.64 q-39.93,-1.6700000000000002 -79.91,-1.29 q-10.9,0.1 -21.8,0.35000000000000003 C162.31000274658203,372.37 146.12000274658203,370.67 143.98000274658204,372.95 z" fill="#e98a8a" opacity="0.42" style="isolation:isolate" id="svg_2" class="" fill-opacity="1"/><path d="M257.60000274658205,298.96 q-0.81,16 -1.9300000000000002,32.06 a91.36,91.36 0 0 1 -2.1,16.08 a46.85,46.85 0 0 1 -3.3200000000000003,9.11 c-0.6100000000000001,1.25 -1.48,2.6100000000000003 -2.85,2.75 c-1.73,0.18000000000000002 -2.93,-1.6700000000000002 -3.55,-3.3 c-3.09,-8 -3.09,-16.76 -3.29,-25.32 q-0.17,-6.640000000000001 -0.53,-13.29 c-0.29000000000000004,-5.35 -0.8700000000000001,-11.14 -4.49,-15.1 c-1.1,-1.2 -2.44,-2.18 -3.52,-3.41 c-4.41,-5 -3.09,-13.43 1.6600000000000001,-18.14 c3.6900000000000004,-3.6500000000000004 14.4,-8.47 19.57,-5.45 C259.390002746582,278.53 257.890002746582,293.19 257.60000274658205,298.96 z" fill="#606161" id="svg_3" class="" opacity="1"/><path d="M226.640002746582,280.65 a13.63,13.63 0 0 1 2.07,8.22 c-0.25,8.69 -5.41,16.38 -8,24.69 c-3.88,12.55 -1.7200000000000002,26 -1.33,39.17 a12.28,12.28 0 0 1 -0.6600000000000001,5.36 a4.49,4.49 0 0 1 -4.21,2.88 a5.62,5.62 0 0 1 -3.35,-2 c-6.36,-6.8 -6.15,-17.17 -7.2,-26.41 c-1.18,-10.29 -4.37,-20.23 -7.09,-30.22 c-1.23,-4.51 -2.38,-9.13 -2.09,-13.79 s2.25,-9.45 6.1,-12.09 C207.87000274658203,271.68 221.650002746582,273.5 226.640002746582,280.65 z" fill="#606161" id="svg_4"/><rect x="445.97998046875" y="269.8699951171875" width="133.5399932861328" height="147.24000549316406" rx="12.140000343322754" transform="rotate(-180 314.2099914550781,228.41000366210935) " fill="#68e1fd" opacity="0.52" id="svg_5"/><rect x="445.97998046875" y="269.8699951171875" width="133.5399932861328" height="147.24000549316406" rx="12.140000343322754" transform="rotate(-180 314.2099914550781,228.41000366210935) " fill="#ecabab" id="svg_6" class="" opacity="0.57" fill-opacity="1"/><rect x="445.97998046875" y="269.8699951171875" width="133.5399932861328" height="147.24000549316406" rx="12.140000343322754" transform="rotate(-180 314.2099914550781,228.41000366210935) " fill="#e98a8a" class="" opacity="0.11" fill-opacity="1" id="svg_142"/><path d="M69.74000274658204,81 l24.93,-12.84 v3.72 l-21,10.47 v0.12000000000000002 l21,10.52 v3.72 L69.74000274658204,83.87 z" fill="#d50b0b" class="" fill-opacity="1" id="svg_143"/><rect x="1092.77001953125" y="297.1099853515625" width="148.39999389648438" height="91.01000213623047" rx="11.5600004196167" transform="rotate(-180 750.3499755859375,227.8300018310547) " fill="#68e1fd" opacity="0.52" id="svg_7"/><rect x="1092.77001953125" y="297.1099853515625" width="148.39999389648438" height="91.01000213623047" rx="11.5600004196167" transform="rotate(-180 750.3499755859375,227.8300018310547) " fill="#eb1a1a" id="svg_8" class="" opacity="0.26" fill-opacity="1"/><rect x="935.5699462890625" y="165.3699951171875" width="93.2300033569336" height="57.18000030517578" rx="7.260000228881836" transform="rotate(-180 627.1599731445312,128.72000122070315) " fill="#68e1fd" opacity="0.52" id="svg_9"/><rect x="935.5699462890625" y="165.3699951171875" width="93.2300033569336" height="57.18000030517578" rx="7.260000228881836" transform="rotate(-180 627.1599731445312,128.72000122070315) " fill="url(#linear-gradient-3)" id="svg_10" class=""/><rect x="713.8399658203125" y="780.3800048828125" width="225.69000244140625" height="10.819999694824219" transform="rotate(-180 523.5,523.280029296875) " fill="#e98a8a" opacity="0.52" id="svg_11" class="" fill-opacity="1"/><rect x="755.3900146484375" y="472.760009765625" width="172.75" height="127.52999877929688" rx="12.5600004196167" transform="rotate(-180 533.5499877929688,357.10000610351557) " fill="#68e1fd" id="svg_12"/><rect x="755.3900146484375" y="472.760009765625" width="172.75" height="127.52999877929688" rx="12.5600004196167" transform="rotate(-180 533.5499877929688,357.10000610351557) " fill="#6d6d6d" id="svg_13" class="" fill-opacity="1" opacity="0.65"/><rect x="160.1999969482422" y="133.8800048828125" width="34.45000076293945" height="2.5299999713897705" fill="url(#linear-gradient-5)" id="svg_14"/><rect x="160.1999969482422" y="138.77000427246094" width="21.030000686645508" height="2.369999885559082" fill="url(#linear-gradient-6)" id="svg_15"/><rect x="189.7100067138672" y="138.77000427246094" width="66.16999816894531" height="2.390000104904175" fill="url(#linear-gradient-7)" id="svg_16"/><rect x="262.07000732421875" y="138.77000427246094" width="37.2400016784668" height="2.390000104904175" fill="url(#linear-gradient-8)" id="svg_17"/><rect x="171.13999938964844" y="143.67999267578125" width="28.90999984741211" height="2.5" fill="url(#linear-gradient-9)" id="svg_18"/><rect x="180.4199981689453" y="148.55999755859375" width="34.45000076293945" height="2.5299999713897705" fill="url(#linear-gradient-10)" id="svg_19"/><rect x="217.1199951171875" y="148.55999755859375" width="28.8799991607666" height="2.809999942779541" fill="url(#linear-gradient-11)" id="svg_20"/><rect x="180.3699951171875" y="153.4499969482422" width="26.600000381469727" height="2.369999885559082" fill="url(#linear-gradient-12)" id="svg_21"/><rect x="209.52000427246094" y="153.4499969482422" width="54.900001525878906" height="2.630000114440918" fill="url(#linear-gradient-13)" id="svg_22"/><rect x="160.1999969482422" y="160.07000732421875" width="34.45000076293945" height="2.5299999713897705" fill="url(#linear-gradient-14)" id="svg_23"/><rect x="160.1999969482422" y="164.9600067138672" width="21.030000686645508" height="2.369999885559082" fill="url(#linear-gradient-15)" id="svg_24"/><rect x="189.7100067138672" y="164.9600067138672" width="66.16999816894531" height="2.390000104904175" fill="url(#linear-gradient-16)" id="svg_25"/><rect x="262.07000732421875" y="164.9600067138672" width="37.2400016784668" height="2.390000104904175" fill="url(#linear-gradient-17)" id="svg_26"/><rect x="171.13999938964844" y="169.85000610351562" width="28.90999984741211" height="2.5" fill="url(#linear-gradient-18)" id="svg_27"/><rect x="180.4199981689453" y="174.75" width="34.45000076293945" height="2.5299999713897705" fill="url(#linear-gradient-19)" id="svg_28"/><rect x="217.1199951171875" y="174.75" width="28.8799991607666" height="2.809999942779541" fill="url(#linear-gradient-20)" id="svg_29"/><rect x="180.3699951171875" y="179.63999938964844" width="26.600000381469727" height="2.369999885559082" fill="url(#linear-gradient-21)" id="svg_30"/><rect x="209.52000427246094" y="179.63999938964844" width="54.900001525878906" height="2.630000114440918" fill="url(#linear-gradient-22)" id="svg_31"/><rect x="160.1999969482422" y="186.25" width="34.45000076293945" height="2.5299999713897705" fill="url(#linear-gradient-23)" id="svg_32"/><rect x="160.1999969482422" y="191.13999938964844" width="21.030000686645508" height="2.369999885559082" fill="url(#linear-gradient-24)" id="svg_33"/><rect x="189.7100067138672" y="191.13999938964844" width="66.16999816894531" height="2.390000104904175" fill="url(#linear-gradient-25)" id="svg_34"/><rect x="262.07000732421875" y="191.13999938964844" width="37.2400016784668" height="2.390000104904175" fill="url(#linear-gradient-26)" id="svg_35"/><rect x="171.13999938964844" y="196.02999877929688" width="28.90999984741211" height="2.5" fill="url(#linear-gradient-27)" id="svg_36"/><rect x="180.4199981689453" y="200.9199981689453" width="34.45000076293945" height="2.5299999713897705" fill="url(#linear-gradient-28)" id="svg_37"/><rect x="217.1199951171875" y="200.9199981689453" width="28.8799991607666" height="2.809999942779541" fill="url(#linear-gradient-29)" id="svg_38"/><rect x="180.3699951171875" y="205.82000732421875" width="26.600000381469727" height="2.369999885559082" fill="url(#linear-gradient-30)" id="svg_39"/><rect x="209.52000427246094" y="205.82000732421875" width="54.900001525878906" height="2.630000114440918" fill="url(#linear-gradient-31)" id="svg_40"/><g opacity="0.52" id="svg_41" class="" fill="#e76767" fill-opacity="1"><rect x="237.35000610351562" y="42.709999084472656" width="17.139999389648438" height="1.2599999904632568" fill="#e76767" id="svg_42" fill-opacity="1"/><rect x="237.35000610351562" y="45.150001525878906" width="10.460000038146973" height="1.1799999475479126" fill="#e76767" id="svg_43" fill-opacity="1"/><rect x="252.02999877929688" y="45.150001525878906" width="32.91999816894531" height="1.190000057220459" fill="#e76767" id="svg_44" fill-opacity="1"/><rect x="288.0199890136719" y="45.150001525878906" width="18.530000686645508" height="1.190000057220459" fill="#e76767" id="svg_45" fill-opacity="1"/><rect x="242.7899932861328" y="47.58000183105469" width="14.380000114440918" height="1.2400000095367432" fill="#e76767" id="svg_46" fill-opacity="1"/><rect x="247.41000366210938" y="50.02000045776367" width="17.139999389648438" height="1.2599999904632568" fill="#e76767" id="svg_47" fill-opacity="1"/><rect x="265.6600036621094" y="50.02000045776367" width="14.359999656677246" height="1.399999976158142" fill="#e76767" id="svg_48" fill-opacity="1"/><rect x="247.3800048828125" y="52.45000076293945" width="13.229999542236328" height="1.1799999475479126" fill="#e76767" id="svg_49" fill-opacity="1"/><rect x="261.8900146484375" y="52.45000076293945" width="27.309999465942383" height="1.309999942779541" fill="#e76767" id="svg_50" fill-opacity="1"/><rect x="237.35000610351562" y="55.7400016784668" width="17.139999389648438" height="1.2599999904632568" fill="#e76767" id="svg_51" fill-opacity="1"/><rect x="237.35000610351562" y="58.16999816894531" width="10.460000038146973" height="1.1799999475479126" fill="#e76767" id="svg_52" fill-opacity="1"/><rect x="252.02999877929688" y="58.16999816894531" width="32.91999816894531" height="1.190000057220459" fill="#e76767" id="svg_53" fill-opacity="1"/><rect x="288.0199890136719" y="58.16999816894531" width="18.530000686645508" height="1.190000057220459" fill="#e76767" id="svg_54" fill-opacity="1"/><rect x="242.7899932861328" y="60.599998474121094" width="14.380000114440918" height="1.2400000095367432" fill="#e76767" id="svg_55" fill-opacity="1"/><rect x="247.41000366210938" y="63.040000915527344" width="17.139999389648438" height="1.2599999904632568" fill="#e76767" id="svg_56" fill-opacity="1"/><rect x="265.6600036621094" y="63.040000915527344" width="14.359999656677246" height="1.399999976158142" fill="#e76767" id="svg_57" fill-opacity="1"/><rect x="247.3800048828125" y="65.47000122070312" width="13.229999542236328" height="1.1799999475479126" fill="#e76767" id="svg_58" fill-opacity="1"/><rect x="261.8900146484375" y="65.47000122070312" width="27.309999465942383" height="1.309999942779541" fill="#e76767" id="svg_59" fill-opacity="1"/><rect x="237.35000610351562" y="68.76000213623047" width="17.139999389648438" height="1.2599999904632568" fill="#e76767" id="svg_60" fill-opacity="1"/><rect x="237.35000610351562" y="71.19999694824219" width="10.460000038146973" height="1.1799999475479126" fill="#e76767" id="svg_61" fill-opacity="1"/><rect x="252.02999877929688" y="71.19999694824219" width="32.91999816894531" height="1.190000057220459" fill="#e76767" id="svg_62" fill-opacity="1"/><rect x="288.0199890136719" y="71.19999694824219" width="18.530000686645508" height="1.190000057220459" fill="#e76767" id="svg_63" fill-opacity="1"/><rect x="242.7899932861328" y="73.62999725341797" width="14.380000114440918" height="1.2400000095367432" fill="#e76767" id="svg_64" fill-opacity="1"/><rect x="247.41000366210938" y="76.05999755859375" width="17.139999389648438" height="1.2599999904632568" fill="#e76767" id="svg_65" fill-opacity="1"/><rect x="265.6600036621094" y="76.05999755859375" width="14.359999656677246" height="1.399999976158142" fill="#e76767" id="svg_66" fill-opacity="1"/><rect x="247.3800048828125" y="78.5" width="13.229999542236328" height="1.1799999475479126" fill="#e76767" id="svg_67" fill-opacity="1"/><rect x="261.8900146484375" y="78.5" width="27.309999465942383" height="1.309999942779541" fill="#e76767" id="svg_68" fill-opacity="1"/></g><path d="M266.91000274658205,248.35 c0.7100000000000001,2 1.3800000000000001,4.1 0.9400000000000001,6.16 a6,6 0 0 1 -0.8500000000000001,2 c-2,3.1 -6.74,3.58 -10,1.7200000000000002 s-5.1,-5.42 -6,-9 a9.67,9.67 0 0 1 -0.35000000000000003,-3.7 c0.29000000000000004,-2.17 1.73,-4 3.23,-5.6 c2,-2.08 5.67,-4.8 8.36,-2.3 C264.66000274658205,239.87 265.84000274658206,245.36 266.91000274658205,248.35 z" fill="url(#linear-gradient-32)" id="svg_69"/><path d="M185.12000274658203,247.75 a5.14,5.14 0 0 0 -0.5900000000000001,2.6900000000000004 a4.69,4.69 0 0 0 0.7000000000000001,1.6800000000000002 a13.49,13.49 0 0 0 3.31,3.93 a6.87,6.87 0 0 0 4.8100000000000005,1.49 c2.56,-0.28 4.59,-2.31 5.95,-4.5 a12.33,12.33 0 0 0 2.13,-7.06 a9,9 0 0 0 -3.68,-6.74 c-1.9300000000000002,-1.4 -5.95,-2.67 -8.13,-1.07 S186.210002746582,245.17 185.12000274658203,247.75 z" fill="url(#linear-gradient-33)" id="svg_70"/><path d="M244.18000274658203,174.3 a2.42,2.42 0 0 1 2.1,0.37000000000000005 a2.79,2.79 0 0 1 0.6900000000000002,1.71 A12.25,12.25 0 0 1 247.12000274658203,180.25 a5.3100000000000005,5.3100000000000005 0 0 1 -1.77,3.31 a7.66,7.66 0 0 1 -2.52,1.22 a2.85,2.85 0 0 1 -2.16,0.08000000000000002 a2.49,2.49 0 0 1 -1.08,-1.85 C238.80000274658204,179.14 240.01000274658202,175.06 244.18000274658203,174.3 z" fill="url(#linear-gradient-34)" id="svg_71"/><path d="M207.770002746582,172.96 a2.48,2.48 0 0 0 -1.21,0 A2.51,2.51 0 0 0 205.12000274658203,175.25 a10.64,10.64 0 0 0 0.18000000000000002,2.81 A7.76,7.76 0 0 0 207.12000274658203,182.25 a3.4,3.4 0 0 0 4.15,0.7200000000000001 C215.520002746582,180.03 211.520002746582,173.78 207.770002746582,172.96 z" fill="url(#linear-gradient-35)" id="svg_72"/><path d="M234.69000274658202,200.91 a8.870000000000001,8.870000000000001 0 0 1 0.16000000000000003,2.7600000000000002 c-0.37000000000000005,2.56 -2.92,4.35 -5.48,4.67 s-5.12,-0.54 -7.51,-1.49 a6,6 0 0 1 -2,-1.1400000000000001 a4.45,4.45 0 0 1 -1.15,-2.21 a16.05,16.05 0 0 1 -0.26,-4.38 l0.16000000000000003,-5.16 a6.18,6.18 0 0 1 0.5800000000000001,-2.93 c1,-1.71 3.29,-2 5.28,-2.13 c2.6100000000000003,-0.11000000000000001 6.54,0 8.26,2.38 S234.25000274658203,198.14 234.69000274658202,200.91 z" fill="url(#linear-gradient-36)" id="svg_73"/><path d="M242.73000274658204,158.79 a15.29,15.29 0 0 1 0.8,6.8 a127.36,127.36 0 0 1 -1.6600000000000001,15.83 c-0.6600000000000001,3.93 -1.7000000000000002,8.15 -4.8100000000000005,10.63 a19.9,19.9 0 0 0 -2.51,2 c-0.54,0.5800000000000001 -0.92,1.3 -1.42,1.9300000000000002 c-2.5300000000000002,3.17 -7.63,3.17 -11.11,1.06 s-5.71,-5.73 -7.75,-9.25 c-2.25,-3.88 -4.48,-7.94 -4.88,-12.41 c-0.33000000000000007,-3.54 0.5,-7.27 -0.8500000000000001,-10.56 c-1,-2.42 -3.07,-4.36 -3.5300000000000002,-6.93 a11.67,11.67 0 0 1 0.6200000000000001,-5.12 c0.81,-2.91 2.05,-6.27 5,-7.06 c2.15,-0.5800000000000001 4.37,0.52 6.6,0.5900000000000001 c2.84,0.1 5.73,-1.49 8.43,-0.5900000000000001 c3.47,1.1600000000000001 5,5.16 8.46,6.46 S241.12000274658203,155.11 242.73000274658204,158.79 z" fill="#606161" id="svg_74"/><path d="M254.210002746582,210.04 c-10.14,-8.41 -24.77,-8.2 -37.82,-6.42 c-5.39,0.7300000000000001 -10.88,1.7000000000000002 -15.620000000000001,4.38 c-7.94,4.5 -12.64,13.2 -15.11,22 c-1.31,4.67 -2,10 0.6200000000000001,14.1 c2.75,4.24 8.23,5.7 13.25,6.26 a4.43,4.43 0 0 1 2.18,0.6300000000000001 a3.87,3.87 0 0 1 1.22,2.45 c1.4,7.3 -1.44,15.5 2.31,21.91 c3.63,6.19 11.74,7.82 18.89,8.37 c9.25,0.7100000000000001 19.28,0.45 26.79,-5 a10.870000000000001,10.870000000000001 0 0 0 3.11,-3.19 c1.24,-2.12 1.31,-4.7 1.34,-7.15 c0.08000000000000002,-5.34 -1.87,-16.08 0.7300000000000001,-20.79 c2.18,-3.92 8.39,-3.94 10.57,-8.42 C270.80000274658204,230.65 260.42000274658204,215.18 254.210002746582,210.04 z" fill="#fff" id="svg_75" class=""/><path d="M217.51000274658202,278.09 l0.07,11.37 a2.19,2.19 0 0 1 -0.24000000000000002,1.27 a2,2 0 0 1 -1.34,0.7300000000000001 c-3.08,0.7200000000000001 -6.3,0.31000000000000005 -9.46,0.32000000000000006 s-6.57,0.5700000000000001 -8.84,2.7800000000000002 c3.45,2.55 7.9,3.25 12.17,3.75 q9.48,1.13 19,1.5 a49.21,49.21 0 0 0 12.31,-0.6400000000000001 a22.83,22.83 0 0 0 9.76,-4.55 c-2.79,-3 -7.41,-2.94 -11.49,-2.94 a104.74,104.74 0 0 1 -11.88,-0.6800000000000002 a3.25,3.25 0 0 1 -2.39,-1 a3.17,3.17 0 0 1 -0.38000000000000006,-1.9500000000000002 a39.47,39.47 0 0 1 0.9500000000000001,-7.5 a4.75,4.75 0 0 1 0.9500000000000001,-2.23 a5.28,5.28 0 0 1 3.18,-1.26 a69.35,69.35 0 0 0 13.55,-3.7 a15.45,15.45 0 0 0 4.95,-2.73 c3.94,-3.58 3.77,-9.75 2.8600000000000003,-15 a50.31,50.31 0 0 1 -23.82,6.78 c-5.73,0.16000000000000003 -18.16,-2.3 -22.19,3.22 c-2,2.79 0.13,5.37 2.34,7.3 C208.53000274658206,273.75 217.51000274658202,277.98 217.51000274658202,278.09 z" fill="#242424" id="svg_76" class="" opacity="0.56" fill-opacity="1"/><rect x="197.4499969482422" y="226.4199981689453" width="57.380001068115234" height="40.66999816894531" rx="16.790000915527344" fill="#68e1fd" id="svg_77"/><rect x="197.4499969482422" y="226.4199981689453" width="57.380001068115234" height="40.66999816894531" rx="16.790000915527344" fill="#d50b0b" id="svg_78" class="" fill-opacity="1"/><rect x="197.4499969482422" y="230.16000366210938" width="57.380001068115234" height="40.66999816894531" rx="16.790000915527344" fill="#e76767" id="svg_79" class="" fill-opacity="1"/><path d="M234.97000274658205,252.61 a21.93,21.93 0 0 1 -5.38,1.6 c-5,0.92 -10.84,0.7200000000000001 -14.44,-2.91 a6.42,6.42 0 0 1 -1.35,-1.92 c-1,-2.43 0.31000000000000005,-5.36 2.46,-6.9 s4.88,-1.9500000000000002 7.51,-2.08 c3.22,-0.16000000000000003 9.34,-0.7100000000000001 12.15,1.46 C239.28000274658206,244.46 238.76000274658202,250.83 234.97000274658205,252.61 z" fill="url(#linear-gradient-39)" id="svg_80"/><rect x="837.4200439453125" y="807.25" width="7.829999923706055" height="64.63999938964844" rx="3.9100000858306885" transform="rotate(180 533.260009765625,559.1300048828125) " fill="#fff" id="svg_81"/><path d="M249.270002746582,356.05 c2,1.6500000000000001 2.5,4.51 3.38,7 c1.22,3.4 3.48,6.49 3.7800000000000002,10.09 a5.640000000000001,5.640000000000001 0 0 1 -0.51,3.12 a5,5 0 0 1 -4.34,2.44 a9.5,9.5 0 0 1 -4.93,-1.5 a17.29,17.29 0 0 1 -6.24,-6.41 a11,11 0 0 1 -1.42,-4.22 C238.580002746582,362.06 243.26000274658202,351.25 249.270002746582,356.05 z" fill="#e98a8a" id="svg_82" class="" fill-opacity="1"/><path d="M253.00000274658203,375.13 a1.81,1.81 0 0 1 0,1.71 a1.55,1.55 0 0 1 -0.8700000000000001,0.47000000000000003 a5.6,5.6 0 0 1 -4,-0.7300000000000001 a16.27,16.27 0 0 1 -3.22,-2.59 a23.43,23.43 0 0 1 -3.91,-4.42 a8,8 0 0 1 -1.27,-5.65 c1.06,-5.42 5.84,-0.56 7.6,1.44 A29,29 0 0 1 253.00000274658203,375.13 z" fill="#606161" id="svg_83"/><path d="M210.12000274658203,356.16 c-2,1.6500000000000001 -2.5,4.51 -3.38,7 c-1.22,3.4 -3.48,6.5 -3.7800000000000002,10.09 a5.68,5.68 0 0 0 0.51,3.13 a5,5 0 0 0 4.34,2.43 a9.4,9.4 0 0 0 4.93,-1.5 a17.21,17.21 0 0 0 6.24,-6.41 a10.94,10.94 0 0 0 1.42,-4.22 C220.80000274658204,362.17 216.12000274658203,351.32 210.12000274658203,356.16 z" fill="#e98a8a" id="svg_84" class="" fill-opacity="1"/><path d="M205.88000274658202,375.52 a1.84,1.84 0 0 0 0,1.71 a1.58,1.58 0 0 0 0.8800000000000001,0.47000000000000003 a5.71,5.71 0 0 0 4,-0.7300000000000001 a16.65,16.65 0 0 0 3.21,-2.59 a23.23,23.23 0 0 0 3.92,-4.43 a8,8 0 0 0 1.27,-5.640000000000001 c-1.07,-5.43 -5.84,-0.5700000000000001 -7.61,1.44 A29.12,29.12 0 0 0 205.88000274658202,375.52 z" fill="#606161" id="svg_85"/><path d="M231.55000274658204,332.25 a10.54,10.54 0 0 1 -5.17,1 a22.68,22.68 0 0 1 -5.88,-0.43000000000000005 a4.11,4.11 0 0 1 -1.78,-0.8300000000000001 a4.06,4.06 0 0 1 -1,-1.42 c-1.6300000000000001,-3.6 -3.47,-11.06 -0.9400000000000001,-14.09 c2.89,-3.48 14.36,-4.09 18,-0.44000000000000006 C238.31000274658203,319.46 235.75000274658203,329.78 231.55000274658204,332.25 z" fill="#68e1fd" id="svg_86"/><path d="M231.55000274658204,332.25 a10.54,10.54 0 0 1 -5.17,1 a22.68,22.68 0 0 1 -5.88,-0.43000000000000005 a4.11,4.11 0 0 1 -1.78,-0.8300000000000001 a4.06,4.06 0 0 1 -1,-1.42 c-1.6300000000000001,-3.6 -3.47,-11.06 -0.9400000000000001,-14.09 c2.89,-3.48 14.36,-4.09 18,-0.44000000000000006 C238.31000274658203,319.46 235.75000274658203,329.78 231.55000274658204,332.25 z" fill="#242424" id="svg_87" class="" opacity="0.84" fill-opacity="1"/><rect x="841.77001953125" y="1034.3599853515625" width="5.21999979019165" height="33.68000030517578" transform="rotate(-180 535.2899780273438,700.219970703125) " fill="#fff" id="svg_88"/><path d="M246.84000274658206,368.88 c1.1600000000000001,0.9500000000000001 2.29,2.14 3.7800000000000002,2.3200000000000003 c1.08,0.12000000000000001 2.16,-0.3400000000000001 3.26,-0.3400000000000001 a6.12,6.12 0 0 1 3.85,1.73 a6.51,6.51 0 0 1 2.12,3 c0.81,2.7600000000000002 -1.6500000000000001,5.78 -4.52,6.06 s-5.63,-1.6800000000000002 -6.890000000000001,-4.26 a9.4,9.4 0 0 0 -1.06,-2 a5.8100000000000005,5.8100000000000005 0 0 0 -1.4300000000000002,-1.12 A41.88,41.88 0 0 0 232.12000274658203,368.8 c-0.8500000000000001,-0.17 -1.8900000000000001,-0.25 -2.43,0.42000000000000004 a2.36,2.36 0 0 0 -0.41000000000000003,1.3 a45.72,45.72 0 0 0 -0.27,6 a2.27,2.27 0 0 0 0.21000000000000002,1.12 a4,4 0 0 0 0.9400000000000001,0.93 a3.9,3.9 0 0 1 0.52,4.65 a7.12,7.12 0 0 1 -3.91,3 c-1.92,0.7100000000000001 -4.34,0.8300000000000001 -5.77,-0.6400000000000001 a4.11,4.11 0 0 1 -0.7500000000000001,-4.24 a6.35,6.35 0 0 1 3,-3.26 a2.6,2.6 0 0 0 1.18,-0.9 a2.3200000000000003,2.3200000000000003 0 0 0 0.18000000000000002,-1.2 l-0.14,-4.46 a2.15,2.15 0 0 0 -0.6800000000000002,-1.85 a2,2 0 0 0 -1.3,-0.19000000000000003 a39,39 0 0 0 -20.3,7.61 c1.08,0.8400000000000001 0.8900000000000001,2.66 -0.08000000000000002,3.62 a5.26,5.26 0 0 1 -3.8200000000000003,1.18 a7.65,7.65 0 0 1 -4.27,-1.25 a4.42,4.42 0 0 1 -2,-3.84 a4.47,4.47 0 0 1 2.67,-3.52 a8,8 0 0 1 4.53,-0.49000000000000005 a9.23,9.23 0 0 0 2.39,0.19000000000000003 a7.23,7.23 0 0 0 2.52,-1.05 a55.86,55.86 0 0 1 22.53,-7 C233.30000274658204,364.34 241.47000274658205,364.48 246.84000274658206,368.88 z" fill="#fff" id="svg_89"/><rect x="1148.909912109375" y="579.8699951171875" width="85.20999908447266" height="63.189998626708984" rx="11.020000457763672" transform="rotate(-180 766.719970703125,407.05999755859375) " fill="#fff" id="svg_90"/><rect x="421.30999755859375" y="650.0800170898438" width="97.97000122070312" height="35.939998626708984" rx="10.670000076293945" transform="rotate(-180 285.8999938964844,444.7799987792969) " fill="#fff" id="svg_91"/><path d="M69.74000274658204,81 l24.93,-12.84 v3.72 l-21,10.47 v0.12000000000000001 l21,10.52 v3.72 L69.74000274658204,83.87 z" fill="#d50b0b" id="svg_92" class="" fill-opacity="1"/><path d="M69.74000274658204,81 l24.93,-12.84 v3.72 l-21,10.47 v0.12000000000000002 l21,10.52 v3.72 L69.74000274658204,83.87 z" fill="#d50b0b" class="" fill-opacity="1" id="svg_141"/><path d="M69.74000274658204,81 l24.93,-12.84 v3.72 l-21,10.47 v0.12000000000000002 l21,10.52 v3.72 L69.74000274658204,83.87 z" fill="#d50b0b" class="" fill-opacity="1" id="svg_144"/><path d="M69.74000274658204,81 l24.93,-12.84 v3.72 l-21,10.47 v0.12000000000000002 l21,10.52 v3.72 L69.74000274658204,83.87 z" fill="#e76767" class="" fill-opacity="1" id="svg_145"/><path d="M98.12000274658203,98.91 l15,-39 h3.6500000000000004 l-15,39 z" fill="#e76767" class="" fill-opacity="1" id="svg_146"/><path d="M98.12000274658203,98.91 l15,-39 h3.6500000000000004 l-15,39 z" fill="#e76767" id="svg_93" class="" fill-opacity="1"/><path d="M145.12000274658203,84.06 L120.18000274658203,96.85 V93.04 l21.16,-10.52 V82.35 L120.18000274658203,71.83 V68.16 L145.12000274658203,80.95 z" fill="#e76767" id="svg_94" class="" fill-opacity="1"/><rect x="796.5399780273438" y="911.4000244140625" width="83.47000122070312" height="25.889999389648438" rx="12.550000190734863" transform="rotate(-180 531.219970703125,615.6500244140625) " fill="#68e1fd" id="svg_95"/><rect x="796.5399780273438" y="911.4000244140625" width="83.47000122070312" height="25.889999389648438" rx="12.550000190734863" transform="rotate(-180 531.219970703125,615.6500244140625) " fill="#242424" id="svg_96" class="" opacity="0.83" fill-opacity="1"/><g opacity="0.52" id="svg_97" class="" fill="#e76767" fill-opacity="1"><rect x="308.7799987792969" y="187.41000366210938" width="22.799999237060547" height="1.6699999570846558" fill="#e76767" id="svg_98" fill-opacity="1"/><rect x="308.7799987792969" y="190.63999938964844" width="13.920000076293945" height="1.5700000524520874" fill="#e76767" id="svg_99" fill-opacity="1"/><rect x="328.30999755859375" y="190.63999938964844" width="43.790000915527344" height="1.5800000429153442" fill="#e76767" id="svg_100" fill-opacity="1"/><rect x="316.0199890136719" y="193.88999938964844" width="19.139999389648438" height="1.659999966621399" fill="#e76767" id="svg_101" fill-opacity="1"/><rect x="322.1600036621094" y="197.1199951171875" width="22.799999237060547" height="1.6699999570846558" fill="#e76767" id="svg_102" fill-opacity="1"/><rect x="346.44000244140625" y="197.1199951171875" width="19.110000610351562" height="1.8600000143051147" fill="#e76767" id="svg_103" fill-opacity="1"/><rect x="322.1199951171875" y="200.36000061035156" width="17.610000610351562" height="1.5700000524520874" fill="#e76767" id="svg_104" fill-opacity="1"/><rect x="341.4200134277344" y="200.36000061035156" width="36.33000183105469" height="1.7400000095367432" fill="#e76767" id="svg_105" fill-opacity="1"/><rect x="308.7799987792969" y="204.74000549316406" width="22.799999237060547" height="1.6699999570846558" fill="#e76767" id="svg_106" fill-opacity="1"/><rect x="308.7799987792969" y="207.97000122070312" width="13.920000076293945" height="1.5700000524520874" fill="#e76767" id="svg_107" fill-opacity="1"/><rect x="328.30999755859375" y="207.97000122070312" width="43.790000915527344" height="1.5800000429153442" fill="#e76767" id="svg_108" fill-opacity="1"/><rect x="316.0199890136719" y="211.2100067138672" width="19.139999389648438" height="1.659999966621399" fill="#e76767" id="svg_109" fill-opacity="1"/><rect x="322.1600036621094" y="214.4499969482422" width="22.799999237060547" height="1.6699999570846558" fill="#e76767" id="svg_110" fill-opacity="1"/><rect x="346.44000244140625" y="214.4499969482422" width="19.110000610351562" height="1.8600000143051147" fill="#e76767" id="svg_111" fill-opacity="1"/><rect x="322.1199951171875" y="217.69000244140625" width="17.610000610351562" height="1.5700000524520874" fill="#e76767" id="svg_112" fill-opacity="1"/><rect x="341.4200134277344" y="217.69000244140625" width="36.33000183105469" height="1.7400000095367432" fill="#e76767" id="svg_113" fill-opacity="1"/></g><g opacity="0.52" id="svg_114" class="" fill="#e76767" fill-opacity="1"><rect x="67.63999938964844" y="211.4600067138672" width="22.799999237060547" height="1.6699999570846558" fill="#e76767" id="svg_115" fill-opacity="1"/><rect x="67.63999938964844" y="214.6999969482422" width="13.920000076293945" height="1.5700000524520874" fill="#e76767" id="svg_116" fill-opacity="1"/><rect x="87.16999816894531" y="214.6999969482422" width="43.790000915527344" height="1.5800000429153442" fill="#e76767" id="svg_117" fill-opacity="1"/><rect x="74.87999725341797" y="217.94000244140625" width="19.139999389648438" height="1.659999966621399" fill="#e76767" id="svg_118" fill-opacity="1"/><rect x="81.0199966430664" y="221.17999267578125" width="22.799999237060547" height="1.6699999570846558" fill="#e76767" id="svg_119" fill-opacity="1"/><rect x="105.30999755859375" y="221.17999267578125" width="19.110000610351562" height="1.8600000143051147" fill="#e76767" id="svg_120" fill-opacity="1"/><rect x="80.98999786376953" y="224.41000366210938" width="17.610000610351562" height="1.5700000524520874" fill="#e76767" id="svg_121" fill-opacity="1"/><rect x="100.27999877929688" y="224.41000366210938" width="36.33000183105469" height="1.7400000095367432" fill="#e76767" id="svg_122" fill-opacity="1"/><rect x="67.63999938964844" y="228.7899932861328" width="22.799999237060547" height="1.6699999570846558" fill="#e76767" id="svg_123" fill-opacity="1"/><rect x="67.63999938964844" y="232.02999877929688" width="13.920000076293945" height="1.5700000524520874" fill="#e76767" id="svg_124" fill-opacity="1"/><rect x="87.16999816894531" y="232.02999877929688" width="43.790000915527344" height="1.5800000429153442" fill="#e76767" id="svg_125" fill-opacity="1"/></g><path d="M112.42000274658204,327.1 c-3.31,-6.54 -7.36,-13.33 -6.58,-20.62 c0.47000000000000003,-4.41 2.7,-8.41 4.88,-12.28 l9.82,-17.41 c3,3.9 7.94,6.27 9.92,10.77 c3.18,7.23 -3,15.23 -2.67,23.12 c0.22000000000000003,6.07 4.25,11.6 4,17.67 c-0.16000000000000003,4.41 -7.14,18.86 -12.79,18.31 C116.01000274658202,346.37 114.30000274658204,330.8 112.42000274658204,327.1 z" fill="#68e1fd" id="svg_126"/><path d="M112.42000274658204,327.1 c-3.31,-6.54 -7.36,-13.33 -6.58,-20.62 c0.47000000000000003,-4.41 2.7,-8.41 4.88,-12.28 l9.82,-17.41 c3,3.9 7.94,6.27 9.92,10.77 c3.18,7.23 -3,15.23 -2.67,23.12 c0.22000000000000003,6.07 4.25,11.6 4,17.67 c-0.16000000000000003,4.41 -7.14,18.86 -12.79,18.31 C116.01000274658202,346.37 114.30000274658204,330.8 112.42000274658204,327.1 z" fill="url(#linear-gradient-42)" id="svg_127" class=""/><path d="M112.42000274658204,327.1 c-3.31,-6.54 -7.36,-13.33 -6.58,-20.62 c0.4700000000000001,-4.41 2.7,-8.41 4.88,-12.28 l9.82,-17.41 c3,3.9 7.94,6.27 9.92,10.77 c3.18,7.23 -3,15.23 -2.67,23.12 c0.22000000000000006,6.07 4.25,11.6 4,17.67 c-0.16000000000000006,4.41 -7.14,18.86 -12.79,18.31 C116.01000274658202,346.37 114.30000274658204,330.8 112.42000274658204,327.1 z" fill="url(#linear-gradient-42)" class="" id="svg_136"/><path d="M112.42000274658204,327.1 c-3.31,-6.54 -7.36,-13.33 -6.58,-20.62 c0.47000000000000014,-4.41 2.7,-8.41 4.88,-12.28 l9.82,-17.41 c3,3.9 7.94,6.27 9.92,10.77 c3.18,7.23 -3,15.23 -2.67,23.12 c0.22000000000000008,6.07 4.25,11.6 4,17.67 c-0.1600000000000001,4.41 -7.14,18.86 -12.79,18.31 C116.01000274658202,346.37 114.30000274658204,330.8 112.42000274658204,327.1 z" fill="#e76767" class="" id="svg_138" fill-opacity="1"/><path d="M113.56000274658203,329.09 c-2.51,-2.8600000000000003 -6.24,-4.27 -9.8,-5.59 c-1.6900000000000008,-0.6200000000000004 -3.8600000000000003,-1.13 -5,0.23 a3.14,3.14 0 0 0 0,3.63 a11.34,11.34 0 0 0 2.83,2.6500000000000004 a17.86,17.86 0 0 1 5.25,6.09 c1.27,2.59 1.61,5.54 2.74,8.2 s3.49,5.17 6.37,5.05 a5.74,5.74 0 0 0 4.92,-4.05 c1.12,-3.45 -0.3700000000000002,-5 -2.22,-7.44 C116.60000274658202,335.15 115.85000274658202,331.68 113.56000274658203,329.09 z" fill="#e76767" class="" id="svg_139" fill-opacity="1"/><path d="M146.23000274658204,324.31 c2.23,0 5,0.45 5.6400000000000015,2.6 c0.52,1.8800000000000003 -1.13,3.6100000000000003 -2.7,4.77 c-5.47,4 -12.32,7.07 -15,13.3 c-4.45,10.34 -17.05,3.71 -10.53,-5.24 c2.7,-3.7 5,-8.67 8.36,-11.76 C135.86000274658204,324.41 141.26000274658202,324.25 146.23000274658204,324.31 z" fill="#e76767" class="" id="svg_140" fill-opacity="1"/><path d="M113.56000274658203,329.09 c-2.51,-2.8600000000000003 -6.24,-4.27 -9.8,-5.59 c-1.6900000000000006,-0.6200000000000003 -3.8600000000000003,-1.13 -5,0.23 a3.14,3.14 0 0 0 0,3.63 a11.34,11.34 0 0 0 2.83,2.6500000000000004 a17.86,17.86 0 0 1 5.25,6.09 c1.27,2.59 1.61,5.54 2.74,8.2 s3.49,5.17 6.37,5.05 a5.74,5.74 0 0 0 4.92,-4.05 c1.12,-3.45 -0.37000000000000016,-5 -2.22,-7.44 C116.60000274658202,335.15 115.85000274658202,331.68 113.56000274658203,329.09 z" fill="url(#linear-gradient-44)" class="" id="svg_137"/><path d="M146.23000274658204,324.31 c2.23,0 5,0.45 5.640000000000001,2.6 c0.52,1.8800000000000001 -1.13,3.6100000000000003 -2.7,4.77 c-5.47,4 -12.32,7.07 -15,13.3 c-4.45,10.34 -17.05,3.71 -10.53,-5.24 c2.7,-3.7 5,-8.67 8.36,-11.76 C135.86000274658204,324.41 141.26000274658202,324.25 146.23000274658204,324.31 z" fill="#68e1fd" id="svg_128"/><path d="M146.23000274658204,324.31 c2.23,0 5,0.45 5.640000000000001,2.6 c0.52,1.8800000000000001 -1.13,3.6100000000000003 -2.7,4.77 c-5.47,4 -12.32,7.07 -15,13.3 c-4.45,10.34 -17.05,3.71 -10.53,-5.24 c2.7,-3.7 5,-8.67 8.36,-11.76 C135.86000274658204,324.41 141.26000274658202,324.25 146.23000274658204,324.31 z" fill="#e76767" id="svg_129" class="" fill-opacity="1"/><path d="M113.56000274658203,329.09 c-2.51,-2.8600000000000003 -6.24,-4.27 -9.8,-5.59 c-1.6900000000000002,-0.6200000000000001 -3.8600000000000003,-1.13 -5,0.23 a3.14,3.14 0 0 0 0,3.63 a11.34,11.34 0 0 0 2.83,2.6500000000000004 a17.86,17.86 0 0 1 5.25,6.09 c1.27,2.59 1.61,5.54 2.74,8.2 s3.49,5.17 6.37,5.05 a5.74,5.74 0 0 0 4.92,-4.05 c1.12,-3.45 -0.37000000000000005,-5 -2.22,-7.44 C116.60000274658202,335.15 115.85000274658202,331.68 113.56000274658203,329.09 z" fill="#68e1fd" id="svg_130"/><path d="M113.56000274658203,329.09 c-2.51,-2.8600000000000003 -6.24,-4.27 -9.8,-5.59 c-1.6900000000000002,-0.6200000000000001 -3.8600000000000003,-1.13 -5,0.23 a3.14,3.14 0 0 0 0,3.63 a11.34,11.34 0 0 0 2.83,2.6500000000000004 a17.86,17.86 0 0 1 5.25,6.09 c1.27,2.59 1.61,5.54 2.74,8.2 s3.49,5.17 6.37,5.05 a5.74,5.74 0 0 0 4.92,-4.05 c1.12,-3.45 -0.37000000000000005,-5 -2.22,-7.44 C116.60000274658202,335.15 115.85000274658202,331.68 113.56000274658203,329.09 z" fill="url(#linear-gradient-44)" id="svg_131" class=""/><path d="M113.56000274658203,329.09 c-2.51,-2.8600000000000003 -6.24,-4.27 -9.8,-5.59 c-1.6900000000000004,-0.6200000000000002 -3.8600000000000003,-1.13 -5,0.23 a3.14,3.14 0 0 0 0,3.63 a11.34,11.34 0 0 0 2.83,2.6500000000000004 a17.86,17.86 0 0 1 5.25,6.09 c1.27,2.59 1.61,5.54 2.74,8.2 s3.49,5.17 6.37,5.05 a5.74,5.74 0 0 0 4.92,-4.05 c1.12,-3.45 -0.3700000000000001,-5 -2.22,-7.44 C116.60000274658202,335.15 115.85000274658202,331.68 113.56000274658203,329.09 z" fill="#e76767" class="" id="svg_135" fill-opacity="1"/><path d="M135.27000274658204,345.07 l-3.37,31.53 h-3.5700000000000003 c-2.75,-1.56 -5.53,-3.09 -8.31,-4.65 l-8.1,-4.54 l-2.87,-22.34 z" fill="#68e1fd" id="svg_132"/><path d="M135.27000274658204,345.07 l-3.37,31.53 h-3.5700000000000003 c-2.75,-1.56 -5.53,-3.09 -8.31,-4.65 l-8.1,-4.54 l-2.87,-22.34 z" fill="url(#linear-gradient-45)" id="svg_133" class=""/><path d="M135.27000274658204,345.07 l-3.37,31.53 h-3.5700000000000003 c-2.75,-1.56 -5.53,-3.09 -8.31,-4.65 l-8.1,-4.54 l-2.87,-22.34 z" fill="#e76767" class="" id="svg_134" fill-opacity="1"/></g></svg>