<svg xmlns="http://www.w3.org/2000/svg" xmlns:xlink="http://www.w3.org/1999/xlink" width="420.22" height="406.42" data-name="Layer 1"><rect id="backgroundrect" width="100%" height="100%" x="0" y="0" fill="none" stroke="none"/><defs><linearGradient id="linear-gradient" x1=".486" x2=".539" y1=".221" y2="1.279"><stop offset="0" stop-color="#fff" stop-opacity="0"/><stop offset=".95" stop-color="#fff"/></linearGradient><linearGradient id="linear-gradient-2" x1="420.79" x2="518.18" y1="115.42" y2="130.09" gradientTransform="translate(833.24 229.58) rotate(180)" xlink:href="#linear-gradient"/><linearGradient id="linear-gradient-3" x1="354" x2="355.76" y1="-18.75" y2="124.99" gradientTransform="translate(710.05 130.47) rotate(180)" xlink:href="#linear-gradient"/><linearGradient id="linear-gradient-4" x1="311.92" x2="302.53" y1="260.14" y2="55.38" gradientTransform="translate(616.43 358.85) rotate(180)" xlink:href="#linear-gradient"/><linearGradient id="linear-gradient-5" x1=".538" x2=".483" y1="-27.083" y2="12.964"><stop offset="0" stop-color="#fff" stop-opacity="0"/><stop offset=".99" stop-color="#fff"/></linearGradient><linearGradient id="linear-gradient-6" x1="255" x2="253.1" y1="383.18" y2="281.87" xlink:href="#linear-gradient-5"/><linearGradient id="linear-gradient-7" x1="307.07" x2="305.17" y1="382.22" y2="280.9" xlink:href="#linear-gradient-5"/><linearGradient id="linear-gradient-8" x1="364.93" x2="363.04" y1="381.12" y2="279.82" xlink:href="#linear-gradient-5"/><linearGradient id="linear-gradient-9" x1="269.97" x2="268.07" y1="382.9" y2="281.59" xlink:href="#linear-gradient-5"/><linearGradient id="linear-gradient-10" x1="282.11" x2="280.2" y1="382.69" y2="281.37" xlink:href="#linear-gradient-5"/><linearGradient id="linear-gradient-11" x1="316" x2="314.11" y1="382.05" y2="280.73" xlink:href="#linear-gradient-5"/><linearGradient id="linear-gradient-12" x1="278.22" x2="276.32" y1="382.75" y2="281.44" xlink:href="#linear-gradient-5"/><linearGradient id="linear-gradient-13" x1="321.5" x2="319.61" y1="381.94" y2="280.63" xlink:href="#linear-gradient-5"/><linearGradient id="linear-gradient-14" x1="261.62" x2="259.72" y1="356.88" y2="255.56" xlink:href="#linear-gradient-5"/><linearGradient id="linear-gradient-15" x1="255" x2="253.1" y1="357.01" y2="255.69" xlink:href="#linear-gradient-5"/><linearGradient id="linear-gradient-16" x1="307.07" x2="305.17" y1="356.03" y2="254.71" xlink:href="#linear-gradient-5"/><linearGradient id="linear-gradient-17" x1="364.93" x2="363.04" y1="354.95" y2="253.63" xlink:href="#linear-gradient-5"/><linearGradient id="linear-gradient-18" x1="269.97" x2="268.07" y1="356.73" y2="255.41" xlink:href="#linear-gradient-5"/><linearGradient id="linear-gradient-19" x1="282.11" x2="280.2" y1="356.5" y2="255.18" xlink:href="#linear-gradient-5"/><linearGradient id="linear-gradient-20" x1="316" x2="314.11" y1="355.87" y2="254.55" xlink:href="#linear-gradient-5"/><linearGradient id="linear-gradient-21" x1="278.22" x2="276.32" y1="356.57" y2="255.26" xlink:href="#linear-gradient-5"/><linearGradient id="linear-gradient-22" x1="321.5" x2="319.61" y1="355.77" y2="254.45" xlink:href="#linear-gradient-5"/><linearGradient id="linear-gradient-23" x1="261.62" x2="259.72" y1="330.7" y2="229.39" xlink:href="#linear-gradient-5"/><linearGradient id="linear-gradient-24" x1="255" x2="253.1" y1="330.83" y2="229.51" xlink:href="#linear-gradient-5"/><linearGradient id="linear-gradient-25" x1="307.07" x2="305.17" y1="329.85" y2="228.54" xlink:href="#linear-gradient-5"/><linearGradient id="linear-gradient-26" x1="364.93" x2="363.04" y1="328.77" y2="227.45" xlink:href="#linear-gradient-5"/><linearGradient id="linear-gradient-27" x1="269.97" x2="268.07" y1="330.55" y2="229.23" xlink:href="#linear-gradient-5"/><linearGradient id="linear-gradient-28" x1="282.11" x2="280.2" y1="330.32" y2="229" xlink:href="#linear-gradient-5"/><linearGradient id="linear-gradient-29" x1="316" x2="314.11" y1="329.68" y2="228.36" xlink:href="#linear-gradient-5"/><linearGradient id="linear-gradient-30" x1="278.22" x2="276.32" y1="330.39" y2="229.07" xlink:href="#linear-gradient-5"/><linearGradient id="linear-gradient-31" x1="321.5" x2="319.61" y1="329.58" y2="228.26" xlink:href="#linear-gradient-5"/><linearGradient id="linear-gradient-32" x1=".002" x2="1" y1=".501" y2=".501"><stop offset="0" stop-color="#e5c6d6"/><stop offset=".42" stop-color="#ead4d0"/><stop offset="1" stop-color="#f0e9cb"/></linearGradient><linearGradient id="linear-gradient-33" x1="267.38" x2="284.32" y1="249.25" y2="249.25" xlink:href="#linear-gradient-32"/><linearGradient id="linear-gradient-34" x1="322.22" x2="330.07" y1="181.36" y2="181.36" xlink:href="#linear-gradient-32"/><linearGradient id="linear-gradient-35" x1="287.94" x2="295.96" y1="179.86" y2="179.86" xlink:href="#linear-gradient-32"/><linearGradient id="linear-gradient-36" x1="301.28" x2="317.79" y1="200.39" y2="200.39" xlink:href="#linear-gradient-32"/><linearGradient id="linear-gradient-37" x1="0" x2="1.001" y1=".5" y2=".5"><stop offset="0" stop-color="#010101" stop-opacity="0"/><stop offset=".95" stop-color="#010101"/></linearGradient><linearGradient id="linear-gradient-38" x1="197.45" x2="254.83" y1="246.75" y2="246.75" xlink:href="#linear-gradient-37"/><linearGradient id="linear-gradient-39" x1="308.92" x2="307.82" y1="236.45" y2="294.75" xlink:href="#linear-gradient-37"/><linearGradient id="linear-gradient-40" x1="307.68" x2="310.76" y1="333.3" y2="306.9" xlink:href="#linear-gradient-37"/><linearGradient id="linear-gradient-41" x1="306.62" x2="307.5" y1="291.13" y2="326.77" gradientTransform="translate(614.1 617.39) rotate(180)" xlink:href="#linear-gradient-37"/><linearGradient id="linear-gradient-42" x1="201.67" x2="201.96" y1="322.04" y2="395.67" xlink:href="#linear-gradient-37"/><linearGradient id="linear-gradient-43" x1="218.42" x2="227.8" y1="332.91" y2="369" xlink:href="#linear-gradient-37"/><linearGradient id="linear-gradient-44" x1="194.82" x2="178.98" y1="330.93" y2="369.35" xlink:href="#linear-gradient-37"/><linearGradient id="linear-gradient-45" x1="207.73" x2="189.25" y1="349.86" y2="403.54" xlink:href="#linear-gradient-37"/></defs><title>code 2</title><g class="currentLayer"><title>Layer 1</title><path style="isolation:isolate" id="svg_1" fill="#ecabab" fill-opacity="1" d="M403.05000274658204,266.25 c-12.07,17.31 -29,30.63 -42.39,47 c-19.66,24 -32.38,55.16 -59,71.17 c-12.59,7.5600000000000005 -27.16,10.94 -41.44,14.22 c-22.95,5.28 -46.73,10.56 -69.86,6.1 c-17.73,-3.41 -33.82,-12.35 -49.58,-21.17 l-12.47,-7 c-2.75,-1.56 -5.53,-3.09 -8.31,-4.65 l-8.1,-4.54 c-23.78,-13.4 -47.41,-27.38 -67.45,-45.85 C22.12000274658203,301.03 4.370002746582031,274.05 0.6800027465820335,243.92 c-4.28,-34.82 12.1,-71.39 40.92,-91.4 c15.81,-11 34.66,-17.12 50.19,-28.53 c24.51,-18 38,-46.79 54.83,-72.08 c31.19,-46.89 91.17,-69.33 141.68,-36 c19.63,12.94 34.48,32.16 45.39,53 c9.22,17.57 16,36.63 28.26,52.23 c14,17.82 34.38,30.16 46.63,49.23 C426.93000274658203,198.91 422.49000274658204,238.39 403.05000274658204,266.25 z" opacity=".24"/><path style="isolation:isolate" id="svg_2" fill="#e98a8a" fill-opacity="1" d="M143.98000274658204,372.95 c-1.47,1.61 0.9400000000000001,3.85 3,4.63 a118.11,118.11 0 0 0 42.1,7.8 l-2.45,4.17 a131.42,131.42 0 0 0 69,0.36000000000000004 l-3.48,-5.4 l20.21,-1 c3.21,-0.15000000000000002 14.47,1.17 16.6,-1.6800000000000002 c6.13,-8.21 -18.82,-8.53 -21.5,-8.64 q-39.93,-1.6700000000000002 -79.91,-1.29 q-10.9,0.1 -21.8,0.35000000000000003 C162.31000274658203,372.37 146.12000274658203,370.67 143.98000274658204,372.95 z" opacity=".42"/><path id="svg_3" fill="#606161" d="M257.60000274658205,298.96 q-0.81,16 -1.9300000000000002,32.06 a91.36,91.36 0 0 1 -2.1,16.08 a46.85,46.85 0 0 1 -3.3200000000000003,9.11 c-0.6100000000000001,1.25 -1.48,2.6100000000000003 -2.85,2.75 c-1.73,0.18000000000000002 -2.93,-1.6700000000000002 -3.55,-3.3 c-3.09,-8 -3.09,-16.76 -3.29,-25.32 q-0.17,-6.640000000000001 -0.53,-13.29 c-0.29000000000000004,-5.35 -0.8700000000000001,-11.14 -4.49,-15.1 c-1.1,-1.2 -2.44,-2.18 -3.52,-3.41 c-4.41,-5 -3.09,-13.43 1.6600000000000001,-18.14 c3.6900000000000004,-3.6500000000000004 14.4,-8.47 19.57,-5.45 C259.390002746582,278.53 257.890002746582,293.19 257.60000274658205,298.96 z" opacity="1"/><path id="svg_4" fill="#606161" d="M226.640002746582,280.65 a13.63,13.63 0 0 1 2.07,8.22 c-0.25,8.69 -5.41,16.38 -8,24.69 c-3.88,12.55 -1.7200000000000002,26 -1.33,39.17 a12.28,12.28 0 0 1 -0.6600000000000001,5.36 a4.49,4.49 0 0 1 -4.21,2.88 a5.62,5.62 0 0 1 -3.35,-2 c-6.36,-6.8 -6.15,-17.17 -7.2,-26.41 c-1.18,-10.29 -4.37,-20.23 -7.09,-30.22 c-1.23,-4.51 -2.38,-9.13 -2.09,-13.79 s2.25,-9.45 6.1,-12.09 C207.87000274658203,271.68 221.650002746582,273.5 226.640002746582,280.65 z"/><rect id="svg_5" width="133.54" height="147.24" x="445.98" y="269.87" fill="#68e1fd" opacity=".52" rx="12.14" transform="rotate(-180 314.2099914550781,228.41000366210935)"/><rect id="svg_6" width="133.54" height="147.24" x="445.98" y="269.87" fill="#ecabab" fill-opacity="1" opacity=".57" rx="12.14" transform="rotate(-180 314.2099914550781,228.41000366210935)"/><rect id="svg_142" width="133.54" height="147.24" x="445.98" y="269.87" fill="#e98a8a" fill-opacity="1" opacity=".11" rx="12.14" transform="rotate(-180 314.2099914550781,228.41000366210935)"/><path id="svg_143" fill="#d50b0b" fill-opacity="1" d="M69.74000274658204,81 l24.93,-12.84 v3.72 l-21,10.47 v0.12000000000000002 l21,10.52 v3.72 L69.74000274658204,83.87 z"/><rect id="svg_7" width="148.4" height="91.01" x="1092.77" y="297.11" fill="#68e1fd" opacity=".52" rx="11.56" transform="rotate(-180 750.3499755859375,227.8300018310547)"/><rect id="svg_8" width="148.4" height="91.01" x="1092.77" y="297.11" fill="#eb1a1a" fill-opacity="1" opacity=".26" rx="11.56" transform="rotate(-180 750.3499755859375,227.8300018310547)"/><rect id="svg_9" width="93.23" height="57.18" x="935.57" y="165.37" fill="#68e1fd" opacity=".52" rx="7.26" transform="rotate(-180 627.1599731445312,128.72000122070315)"/><rect id="svg_10" width="93.23" height="57.18" x="935.57" y="165.37" fill="url(#linear-gradient-3)" rx="7.26" transform="rotate(-180 627.1599731445312,128.72000122070315)"/><rect id="svg_11" width="225.69" height="10.82" x="713.84" y="780.38" fill="#e98a8a" fill-opacity="1" opacity=".52" transform="rotate(-180 523.5,523.280029296875)"/><rect id="svg_12" width="172.75" height="127.53" x="755.39" y="472.76" fill="#68e1fd" rx="12.56" transform="rotate(-180 533.5499877929688,357.10000610351557)"/><rect id="svg_13" width="172.75" height="127.53" x="755.39" y="472.76" fill="#6d6d6d" fill-opacity="1" opacity=".65" rx="12.56" transform="rotate(-180 533.5499877929688,357.10000610351557)"/><rect id="svg_14" width="34.45" height="2.53" x="160.2" y="133.88" fill="url(#linear-gradient-5)"/><rect id="svg_15" width="21.03" height="2.37" x="160.2" y="138.77" fill="url(#linear-gradient-6)"/><rect id="svg_16" width="66.17" height="2.39" x="189.71" y="138.77" fill="url(#linear-gradient-7)"/><rect id="svg_17" width="37.24" height="2.39" x="262.07" y="138.77" fill="url(#linear-gradient-8)"/><rect id="svg_18" width="28.91" height="2.5" x="171.14" y="143.68" fill="url(#linear-gradient-9)"/><rect id="svg_19" width="34.45" height="2.53" x="180.42" y="148.56" fill="url(#linear-gradient-10)"/><rect id="svg_20" width="28.88" height="2.81" x="217.12" y="148.56" fill="url(#linear-gradient-11)"/><rect id="svg_21" width="26.6" height="2.37" x="180.37" y="153.45" fill="url(#linear-gradient-12)"/><rect id="svg_22" width="54.9" height="2.63" x="209.52" y="153.45" fill="url(#linear-gradient-13)"/><rect id="svg_23" width="34.45" height="2.53" x="160.2" y="160.07" fill="url(#linear-gradient-14)"/><rect id="svg_24" width="21.03" height="2.37" x="160.2" y="164.96" fill="url(#linear-gradient-15)"/><rect id="svg_25" width="66.17" height="2.39" x="189.71" y="164.96" fill="url(#linear-gradient-16)"/><rect id="svg_26" width="37.24" height="2.39" x="262.07" y="164.96" fill="url(#linear-gradient-17)"/><rect id="svg_27" width="28.91" height="2.5" x="171.14" y="169.85" fill="url(#linear-gradient-18)"/><rect id="svg_28" width="34.45" height="2.53" x="180.42" y="174.75" fill="url(#linear-gradient-19)"/><rect id="svg_29" width="28.88" height="2.81" x="217.12" y="174.75" fill="url(#linear-gradient-20)"/><rect id="svg_30" width="26.6" height="2.37" x="180.37" y="179.64" fill="url(#linear-gradient-21)"/><rect id="svg_31" width="54.9" height="2.63" x="209.52" y="179.64" fill="url(#linear-gradient-22)"/><rect id="svg_32" width="34.45" height="2.53" x="160.2" y="186.25" fill="url(#linear-gradient-23)"/><rect id="svg_33" width="21.03" height="2.37" x="160.2" y="191.14" fill="url(#linear-gradient-24)"/><rect id="svg_34" width="66.17" height="2.39" x="189.71" y="191.14" fill="url(#linear-gradient-25)"/><rect id="svg_35" width="37.24" height="2.39" x="262.07" y="191.14" fill="url(#linear-gradient-26)"/><rect id="svg_36" width="28.91" height="2.5" x="171.14" y="196.03" fill="url(#linear-gradient-27)"/><rect id="svg_37" width="34.45" height="2.53" x="180.42" y="200.92" fill="url(#linear-gradient-28)"/><rect id="svg_38" width="28.88" height="2.81" x="217.12" y="200.92" fill="url(#linear-gradient-29)"/><rect id="svg_39" width="26.6" height="2.37" x="180.37" y="205.82" fill="url(#linear-gradient-30)"/><rect id="svg_40" width="54.9" height="2.63" x="209.52" y="205.82" fill="url(#linear-gradient-31)"/><g id="svg_41" fill="#e76767" fill-opacity="1" opacity=".52"><rect id="svg_42" width="17.14" height="1.26" x="237.35" y="42.71" fill="#e76767" fill-opacity="1"/><rect id="svg_43" width="10.46" height="1.18" x="237.35" y="45.15" fill="#e76767" fill-opacity="1"/><rect id="svg_44" width="32.92" height="1.19" x="252.03" y="45.15" fill="#e76767" fill-opacity="1"/><rect id="svg_45" width="18.53" height="1.19" x="288.02" y="45.15" fill="#e76767" fill-opacity="1"/><rect id="svg_46" width="14.38" height="1.24" x="242.79" y="47.58" fill="#e76767" fill-opacity="1"/><rect id="svg_47" width="17.14" height="1.26" x="247.41" y="50.02" fill="#e76767" fill-opacity="1"/><rect id="svg_48" width="14.36" height="1.4" x="265.66" y="50.02" fill="#e76767" fill-opacity="1"/><rect id="svg_49" width="13.23" height="1.18" x="247.38" y="52.45" fill="#e76767" fill-opacity="1"/><rect id="svg_50" width="27.31" height="1.31" x="261.89" y="52.45" fill="#e76767" fill-opacity="1"/><rect id="svg_51" width="17.14" height="1.26" x="237.35" y="55.74" fill="#e76767" fill-opacity="1"/><rect id="svg_52" width="10.46" height="1.18" x="237.35" y="58.17" fill="#e76767" fill-opacity="1"/><rect id="svg_53" width="32.92" height="1.19" x="252.03" y="58.17" fill="#e76767" fill-opacity="1"/><rect id="svg_54" width="18.53" height="1.19" x="288.02" y="58.17" fill="#e76767" fill-opacity="1"/><rect id="svg_55" width="14.38" height="1.24" x="242.79" y="60.6" fill="#e76767" fill-opacity="1"/><rect id="svg_56" width="17.14" height="1.26" x="247.41" y="63.04" fill="#e76767" fill-opacity="1"/><rect id="svg_57" width="14.36" height="1.4" x="265.66" y="63.04" fill="#e76767" fill-opacity="1"/><rect id="svg_58" width="13.23" height="1.18" x="247.38" y="65.47" fill="#e76767" fill-opacity="1"/><rect id="svg_59" width="27.31" height="1.31" x="261.89" y="65.47" fill="#e76767" fill-opacity="1"/><rect id="svg_60" width="17.14" height="1.26" x="237.35" y="68.76" fill="#e76767" fill-opacity="1"/><rect id="svg_61" width="10.46" height="1.18" x="237.35" y="71.2" fill="#e76767" fill-opacity="1"/><rect id="svg_62" width="32.92" height="1.19" x="252.03" y="71.2" fill="#e76767" fill-opacity="1"/><rect id="svg_63" width="18.53" height="1.19" x="288.02" y="71.2" fill="#e76767" fill-opacity="1"/><rect id="svg_64" width="14.38" height="1.24" x="242.79" y="73.63" fill="#e76767" fill-opacity="1"/><rect id="svg_65" width="17.14" height="1.26" x="247.41" y="76.06" fill="#e76767" fill-opacity="1"/><rect id="svg_66" width="14.36" height="1.4" x="265.66" y="76.06" fill="#e76767" fill-opacity="1"/><rect id="svg_67" width="13.23" height="1.18" x="247.38" y="78.5" fill="#e76767" fill-opacity="1"/><rect id="svg_68" width="27.31" height="1.31" x="261.89" y="78.5" fill="#e76767" fill-opacity="1"/></g><path id="svg_69" fill="url(#linear-gradient-32)" d="M266.91000274658205,248.35 c0.7100000000000001,2 1.3800000000000001,4.1 0.9400000000000001,6.16 a6,6 0 0 1 -0.8500000000000001,2 c-2,3.1 -6.74,3.58 -10,1.7200000000000002 s-5.1,-5.42 -6,-9 a9.67,9.67 0 0 1 -0.35000000000000003,-3.7 c0.29000000000000004,-2.17 1.73,-4 3.23,-5.6 c2,-2.08 5.67,-4.8 8.36,-2.3 C264.66000274658205,239.87 265.84000274658206,245.36 266.91000274658205,248.35 z"/><path id="svg_70" fill="url(#linear-gradient-33)" d="M185.12000274658203,247.75 a5.14,5.14 0 0 0 -0.5900000000000001,2.6900000000000004 a4.69,4.69 0 0 0 0.7000000000000001,1.6800000000000002 a13.49,13.49 0 0 0 3.31,3.93 a6.87,6.87 0 0 0 4.8100000000000005,1.49 c2.56,-0.28 4.59,-2.31 5.95,-4.5 a12.33,12.33 0 0 0 2.13,-7.06 a9,9 0 0 0 -3.68,-6.74 c-1.9300000000000002,-1.4 -5.95,-2.67 -8.13,-1.07 S186.210002746582,245.17 185.12000274658203,247.75 z"/><path id="svg_71" fill="url(#linear-gradient-34)" d="M244.18000274658203,174.3 a2.42,2.42 0 0 1 2.1,0.37000000000000005 a2.79,2.79 0 0 1 0.6900000000000002,1.71 A12.25,12.25 0 0 1 247.12000274658203,180.25 a5.3100000000000005,5.3100000000000005 0 0 1 -1.77,3.31 a7.66,7.66 0 0 1 -2.52,1.22 a2.85,2.85 0 0 1 -2.16,0.08000000000000002 a2.49,2.49 0 0 1 -1.08,-1.85 C238.80000274658204,179.14 240.01000274658202,175.06 244.18000274658203,174.3 z"/><path id="svg_72" fill="url(#linear-gradient-35)" d="M207.770002746582,172.96 a2.48,2.48 0 0 0 -1.21,0 A2.51,2.51 0 0 0 205.12000274658203,175.25 a10.64,10.64 0 0 0 0.18000000000000002,2.81 A7.76,7.76 0 0 0 207.12000274658203,182.25 a3.4,3.4 0 0 0 4.15,0.7200000000000001 C215.520002746582,180.03 211.520002746582,173.78 207.770002746582,172.96 z"/><path id="svg_73" fill="url(#linear-gradient-36)" d="M234.69000274658202,200.91 a8.870000000000001,8.870000000000001 0 0 1 0.16000000000000003,2.7600000000000002 c-0.37000000000000005,2.56 -2.92,4.35 -5.48,4.67 s-5.12,-0.54 -7.51,-1.49 a6,6 0 0 1 -2,-1.1400000000000001 a4.45,4.45 0 0 1 -1.15,-2.21 a16.05,16.05 0 0 1 -0.26,-4.38 l0.16000000000000003,-5.16 a6.18,6.18 0 0 1 0.5800000000000001,-2.93 c1,-1.71 3.29,-2 5.28,-2.13 c2.6100000000000003,-0.11000000000000001 6.54,0 8.26,2.38 S234.25000274658203,198.14 234.69000274658202,200.91 z"/><path id="svg_74" fill="#606161" d="M242.73000274658204,158.79 a15.29,15.29 0 0 1 0.8,6.8 a127.36,127.36 0 0 1 -1.6600000000000001,15.83 c-0.6600000000000001,3.93 -1.7000000000000002,8.15 -4.8100000000000005,10.63 a19.9,19.9 0 0 0 -2.51,2 c-0.54,0.5800000000000001 -0.92,1.3 -1.42,1.9300000000000002 c-2.5300000000000002,3.17 -7.63,3.17 -11.11,1.06 s-5.71,-5.73 -7.75,-9.25 c-2.25,-3.88 -4.48,-7.94 -4.88,-12.41 c-0.33000000000000007,-3.54 0.5,-7.27 -0.8500000000000001,-10.56 c-1,-2.42 -3.07,-4.36 -3.5300000000000002,-6.93 a11.67,11.67 0 0 1 0.6200000000000001,-5.12 c0.81,-2.91 2.05,-6.27 5,-7.06 c2.15,-0.5800000000000001 4.37,0.52 6.6,0.5900000000000001 c2.84,0.1 5.73,-1.49 8.43,-0.5900000000000001 c3.47,1.1600000000000001 5,5.16 8.46,6.46 S241.12000274658203,155.11 242.73000274658204,158.79 z"/><path id="svg_75" fill="#fff" d="M254.210002746582,210.04 c-10.14,-8.41 -24.77,-8.2 -37.82,-6.42 c-5.39,0.7300000000000001 -10.88,1.7000000000000002 -15.620000000000001,4.38 c-7.94,4.5 -12.64,13.2 -15.11,22 c-1.31,4.67 -2,10 0.6200000000000001,14.1 c2.75,4.24 8.23,5.7 13.25,6.26 a4.43,4.43 0 0 1 2.18,0.6300000000000001 a3.87,3.87 0 0 1 1.22,2.45 c1.4,7.3 -1.44,15.5 2.31,21.91 c3.63,6.19 11.74,7.82 18.89,8.37 c9.25,0.7100000000000001 19.28,0.45 26.79,-5 a10.870000000000001,10.870000000000001 0 0 0 3.11,-3.19 c1.24,-2.12 1.31,-4.7 1.34,-7.15 c0.08000000000000002,-5.34 -1.87,-16.08 0.7300000000000001,-20.79 c2.18,-3.92 8.39,-3.94 10.57,-8.42 C270.80000274658204,230.65 260.42000274658204,215.18 254.210002746582,210.04 z"/><path id="svg_76" fill="#242424" fill-opacity="1" d="M217.51000274658202,278.09 l0.07,11.37 a2.19,2.19 0 0 1 -0.24000000000000002,1.27 a2,2 0 0 1 -1.34,0.7300000000000001 c-3.08,0.7200000000000001 -6.3,0.31000000000000005 -9.46,0.32000000000000006 s-6.57,0.5700000000000001 -8.84,2.7800000000000002 c3.45,2.55 7.9,3.25 12.17,3.75 q9.48,1.13 19,1.5 a49.21,49.21 0 0 0 12.31,-0.6400000000000001 a22.83,22.83 0 0 0 9.76,-4.55 c-2.79,-3 -7.41,-2.94 -11.49,-2.94 a104.74,104.74 0 0 1 -11.88,-0.6800000000000002 a3.25,3.25 0 0 1 -2.39,-1 a3.17,3.17 0 0 1 -0.38000000000000006,-1.9500000000000002 a39.47,39.47 0 0 1 0.9500000000000001,-7.5 a4.75,4.75 0 0 1 0.9500000000000001,-2.23 a5.28,5.28 0 0 1 3.18,-1.26 a69.35,69.35 0 0 0 13.55,-3.7 a15.45,15.45 0 0 0 4.95,-2.73 c3.94,-3.58 3.77,-9.75 2.8600000000000003,-15 a50.31,50.31 0 0 1 -23.82,6.78 c-5.73,0.16000000000000003 -18.16,-2.3 -22.19,3.22 c-2,2.79 0.13,5.37 2.34,7.3 C208.53000274658206,273.75 217.51000274658202,277.98 217.51000274658202,278.09 z" opacity=".56"/><rect id="svg_77" width="57.38" height="40.67" x="197.45" y="226.42" fill="#68e1fd" rx="16.79"/><rect id="svg_78" width="57.38" height="40.67" x="197.45" y="226.42" fill="#d50b0b" fill-opacity="1" rx="16.79"/><rect id="svg_79" width="57.38" height="40.67" x="197.45" y="230.16" fill="#e76767" fill-opacity="1" rx="16.79"/><path id="svg_80" fill="url(#linear-gradient-39)" d="M234.97000274658205,252.61 a21.93,21.93 0 0 1 -5.38,1.6 c-5,0.92 -10.84,0.7200000000000001 -14.44,-2.91 a6.42,6.42 0 0 1 -1.35,-1.92 c-1,-2.43 0.31000000000000005,-5.36 2.46,-6.9 s4.88,-1.9500000000000002 7.51,-2.08 c3.22,-0.16000000000000003 9.34,-0.7100000000000001 12.15,1.46 C239.28000274658206,244.46 238.76000274658202,250.83 234.97000274658205,252.61 z"/><rect id="svg_81" width="7.83" height="64.64" x="837.42" y="807.25" fill="#fff" rx="3.91" transform="rotate(180 533.260009765625,559.1300048828125)"/><path id="svg_82" fill="#e98a8a" fill-opacity="1" d="M249.270002746582,356.05 c2,1.6500000000000001 2.5,4.51 3.38,7 c1.22,3.4 3.48,6.49 3.7800000000000002,10.09 a5.640000000000001,5.640000000000001 0 0 1 -0.51,3.12 a5,5 0 0 1 -4.34,2.44 a9.5,9.5 0 0 1 -4.93,-1.5 a17.29,17.29 0 0 1 -6.24,-6.41 a11,11 0 0 1 -1.42,-4.22 C238.580002746582,362.06 243.26000274658202,351.25 249.270002746582,356.05 z"/><path id="svg_83" fill="#606161" d="M253.00000274658203,375.13 a1.81,1.81 0 0 1 0,1.71 a1.55,1.55 0 0 1 -0.8700000000000001,0.47000000000000003 a5.6,5.6 0 0 1 -4,-0.7300000000000001 a16.27,16.27 0 0 1 -3.22,-2.59 a23.43,23.43 0 0 1 -3.91,-4.42 a8,8 0 0 1 -1.27,-5.65 c1.06,-5.42 5.84,-0.56 7.6,1.44 A29,29 0 0 1 253.00000274658203,375.13 z"/><path id="svg_84" fill="#e98a8a" fill-opacity="1" d="M210.12000274658203,356.16 c-2,1.6500000000000001 -2.5,4.51 -3.38,7 c-1.22,3.4 -3.48,6.5 -3.7800000000000002,10.09 a5.68,5.68 0 0 0 0.51,3.13 a5,5 0 0 0 4.34,2.43 a9.4,9.4 0 0 0 4.93,-1.5 a17.21,17.21 0 0 0 6.24,-6.41 a10.94,10.94 0 0 0 1.42,-4.22 C220.80000274658204,362.17 216.12000274658203,351.32 210.12000274658203,356.16 z"/><path id="svg_85" fill="#606161" d="M205.88000274658202,375.52 a1.84,1.84 0 0 0 0,1.71 a1.58,1.58 0 0 0 0.8800000000000001,0.47000000000000003 a5.71,5.71 0 0 0 4,-0.7300000000000001 a16.65,16.65 0 0 0 3.21,-2.59 a23.23,23.23 0 0 0 3.92,-4.43 a8,8 0 0 0 1.27,-5.640000000000001 c-1.07,-5.43 -5.84,-0.5700000000000001 -7.61,1.44 A29.12,29.12 0 0 0 205.88000274658202,375.52 z"/><path id="svg_86" fill="#68e1fd" d="M231.55000274658204,332.25 a10.54,10.54 0 0 1 -5.17,1 a22.68,22.68 0 0 1 -5.88,-0.43000000000000005 a4.11,4.11 0 0 1 -1.78,-0.8300000000000001 a4.06,4.06 0 0 1 -1,-1.42 c-1.6300000000000001,-3.6 -3.47,-11.06 -0.9400000000000001,-14.09 c2.89,-3.48 14.36,-4.09 18,-0.44000000000000006 C238.31000274658203,319.46 235.75000274658203,329.78 231.55000274658204,332.25 z"/><path id="svg_87" fill="#242424" fill-opacity="1" d="M231.55000274658204,332.25 a10.54,10.54 0 0 1 -5.17,1 a22.68,22.68 0 0 1 -5.88,-0.43000000000000005 a4.11,4.11 0 0 1 -1.78,-0.8300000000000001 a4.06,4.06 0 0 1 -1,-1.42 c-1.6300000000000001,-3.6 -3.47,-11.06 -0.9400000000000001,-14.09 c2.89,-3.48 14.36,-4.09 18,-0.44000000000000006 C238.31000274658203,319.46 235.75000274658203,329.78 231.55000274658204,332.25 z" opacity=".84"/><rect id="svg_88" width="5.22" height="33.68" x="841.77" y="1034.36" fill="#fff" transform="rotate(-180 535.2899780273438,700.219970703125)"/><path id="svg_89" fill="#fff" d="M246.84000274658206,368.88 c1.1600000000000001,0.9500000000000001 2.29,2.14 3.7800000000000002,2.3200000000000003 c1.08,0.12000000000000001 2.16,-0.3400000000000001 3.26,-0.3400000000000001 a6.12,6.12 0 0 1 3.85,1.73 a6.51,6.51 0 0 1 2.12,3 c0.81,2.7600000000000002 -1.6500000000000001,5.78 -4.52,6.06 s-5.63,-1.6800000000000002 -6.890000000000001,-4.26 a9.4,9.4 0 0 0 -1.06,-2 a5.8100000000000005,5.8100000000000005 0 0 0 -1.4300000000000002,-1.12 A41.88,41.88 0 0 0 232.12000274658203,368.8 c-0.8500000000000001,-0.17 -1.8900000000000001,-0.25 -2.43,0.42000000000000004 a2.36,2.36 0 0 0 -0.41000000000000003,1.3 a45.72,45.72 0 0 0 -0.27,6 a2.27,2.27 0 0 0 0.21000000000000002,1.12 a4,4 0 0 0 0.9400000000000001,0.93 a3.9,3.9 0 0 1 0.52,4.65 a7.12,7.12 0 0 1 -3.91,3 c-1.92,0.7100000000000001 -4.34,0.8300000000000001 -5.77,-0.6400000000000001 a4.11,4.11 0 0 1 -0.7500000000000001,-4.24 a6.35,6.35 0 0 1 3,-3.26 a2.6,2.6 0 0 0 1.18,-0.9 a2.3200000000000003,2.3200000000000003 0 0 0 0.18000000000000002,-1.2 l-0.14,-4.46 a2.15,2.15 0 0 0 -0.6800000000000002,-1.85 a2,2 0 0 0 -1.3,-0.19000000000000003 a39,39 0 0 0 -20.3,7.61 c1.08,0.8400000000000001 0.8900000000000001,2.66 -0.08000000000000002,3.62 a5.26,5.26 0 0 1 -3.8200000000000003,1.18 a7.65,7.65 0 0 1 -4.27,-1.25 a4.42,4.42 0 0 1 -2,-3.84 a4.47,4.47 0 0 1 2.67,-3.52 a8,8 0 0 1 4.53,-0.49000000000000005 a9.23,9.23 0 0 0 2.39,0.19000000000000003 a7.23,7.23 0 0 0 2.52,-1.05 a55.86,55.86 0 0 1 22.53,-7 C233.30000274658204,364.34 241.47000274658205,364.48 246.84000274658206,368.88 z"/><rect id="svg_90" width="85.21" height="63.19" x="1148.91" y="579.87" fill="#fff" rx="11.02" transform="rotate(-180 766.719970703125,407.05999755859375)"/><rect id="svg_91" width="97.97" height="35.94" x="421.31" y="650.08" fill="#fff" rx="10.67" transform="rotate(-180 285.8999938964844,444.7799987792969)"/><path id="svg_92" fill="#d50b0b" fill-opacity="1" d="M69.74000274658204,81 l24.93,-12.84 v3.72 l-21,10.47 v0.12000000000000001 l21,10.52 v3.72 L69.74000274658204,83.87 z"/><path id="svg_141" fill="#d50b0b" fill-opacity="1" d="M69.74000274658204,81 l24.93,-12.84 v3.72 l-21,10.47 v0.12000000000000002 l21,10.52 v3.72 L69.74000274658204,83.87 z"/><path id="svg_144" fill="#d50b0b" fill-opacity="1" d="M69.74000274658204,81 l24.93,-12.84 v3.72 l-21,10.47 v0.12000000000000002 l21,10.52 v3.72 L69.74000274658204,83.87 z"/><path id="svg_145" fill="#e76767" fill-opacity="1" d="M69.74000274658204,81 l24.93,-12.84 v3.72 l-21,10.47 v0.12000000000000002 l21,10.52 v3.72 L69.74000274658204,83.87 z"/><path id="svg_146" fill="#e76767" fill-opacity="1" d="M98.12000274658203,98.91 l15,-39 h3.6500000000000004 l-15,39 z"/><path id="svg_93" fill="#e76767" fill-opacity="1" d="M98.12000274658203,98.91 l15,-39 h3.6500000000000004 l-15,39 z"/><path id="svg_94" fill="#e76767" fill-opacity="1" d="M145.12000274658203,84.06 L120.18000274658203,96.85 V93.04 l21.16,-10.52 V82.35 L120.18000274658203,71.83 V68.16 L145.12000274658203,80.95 z"/><rect id="svg_95" width="83.47" height="25.89" x="796.54" y="911.4" fill="#68e1fd" rx="12.55" transform="rotate(-180 531.219970703125,615.6500244140625)"/><rect id="svg_96" width="83.47" height="25.89" x="796.54" y="911.4" fill="#242424" fill-opacity="1" opacity=".83" rx="12.55" transform="rotate(-180 531.219970703125,615.6500244140625)"/><g id="svg_97" fill="#e76767" fill-opacity="1" opacity=".52"><rect id="svg_98" width="22.8" height="1.67" x="308.78" y="187.41" fill="#e76767" fill-opacity="1"/><rect id="svg_99" width="13.92" height="1.57" x="308.78" y="190.64" fill="#e76767" fill-opacity="1"/><rect id="svg_100" width="43.79" height="1.58" x="328.31" y="190.64" fill="#e76767" fill-opacity="1"/><rect id="svg_101" width="19.14" height="1.66" x="316.02" y="193.89" fill="#e76767" fill-opacity="1"/><rect id="svg_102" width="22.8" height="1.67" x="322.16" y="197.12" fill="#e76767" fill-opacity="1"/><rect id="svg_103" width="19.11" height="1.86" x="346.44" y="197.12" fill="#e76767" fill-opacity="1"/><rect id="svg_104" width="17.61" height="1.57" x="322.12" y="200.36" fill="#e76767" fill-opacity="1"/><rect id="svg_105" width="36.33" height="1.74" x="341.42" y="200.36" fill="#e76767" fill-opacity="1"/><rect id="svg_106" width="22.8" height="1.67" x="308.78" y="204.74" fill="#e76767" fill-opacity="1"/><rect id="svg_107" width="13.92" height="1.57" x="308.78" y="207.97" fill="#e76767" fill-opacity="1"/><rect id="svg_108" width="43.79" height="1.58" x="328.31" y="207.97" fill="#e76767" fill-opacity="1"/><rect id="svg_109" width="19.14" height="1.66" x="316.02" y="211.21" fill="#e76767" fill-opacity="1"/><rect id="svg_110" width="22.8" height="1.67" x="322.16" y="214.45" fill="#e76767" fill-opacity="1"/><rect id="svg_111" width="19.11" height="1.86" x="346.44" y="214.45" fill="#e76767" fill-opacity="1"/><rect id="svg_112" width="17.61" height="1.57" x="322.12" y="217.69" fill="#e76767" fill-opacity="1"/><rect id="svg_113" width="36.33" height="1.74" x="341.42" y="217.69" fill="#e76767" fill-opacity="1"/></g><g id="svg_114" fill="#e76767" fill-opacity="1" opacity=".52"><rect id="svg_115" width="22.8" height="1.67" x="67.64" y="211.46" fill="#e76767" fill-opacity="1"/><rect id="svg_116" width="13.92" height="1.57" x="67.64" y="214.7" fill="#e76767" fill-opacity="1"/><rect id="svg_117" width="43.79" height="1.58" x="87.17" y="214.7" fill="#e76767" fill-opacity="1"/><rect id="svg_118" width="19.14" height="1.66" x="74.88" y="217.94" fill="#e76767" fill-opacity="1"/><rect id="svg_119" width="22.8" height="1.67" x="81.02" y="221.18" fill="#e76767" fill-opacity="1"/><rect id="svg_120" width="19.11" height="1.86" x="105.31" y="221.18" fill="#e76767" fill-opacity="1"/><rect id="svg_121" width="17.61" height="1.57" x="80.99" y="224.41" fill="#e76767" fill-opacity="1"/><rect id="svg_122" width="36.33" height="1.74" x="100.28" y="224.41" fill="#e76767" fill-opacity="1"/><rect id="svg_123" width="22.8" height="1.67" x="67.64" y="228.79" fill="#e76767" fill-opacity="1"/><rect id="svg_124" width="13.92" height="1.57" x="67.64" y="232.03" fill="#e76767" fill-opacity="1"/><rect id="svg_125" width="43.79" height="1.58" x="87.17" y="232.03" fill="#e76767" fill-opacity="1"/></g><path id="svg_126" fill="#68e1fd" d="M112.42000274658204,327.1 c-3.31,-6.54 -7.36,-13.33 -6.58,-20.62 c0.47000000000000003,-4.41 2.7,-8.41 4.88,-12.28 l9.82,-17.41 c3,3.9 7.94,6.27 9.92,10.77 c3.18,7.23 -3,15.23 -2.67,23.12 c0.22000000000000003,6.07 4.25,11.6 4,17.67 c-0.16000000000000003,4.41 -7.14,18.86 -12.79,18.31 C116.01000274658202,346.37 114.30000274658204,330.8 112.42000274658204,327.1 z"/><path id="svg_127" fill="url(#linear-gradient-42)" d="M112.42000274658204,327.1 c-3.31,-6.54 -7.36,-13.33 -6.58,-20.62 c0.47000000000000003,-4.41 2.7,-8.41 4.88,-12.28 l9.82,-17.41 c3,3.9 7.94,6.27 9.92,10.77 c3.18,7.23 -3,15.23 -2.67,23.12 c0.22000000000000003,6.07 4.25,11.6 4,17.67 c-0.16000000000000003,4.41 -7.14,18.86 -12.79,18.31 C116.01000274658202,346.37 114.30000274658204,330.8 112.42000274658204,327.1 z"/><path id="svg_136" fill="url(#linear-gradient-42)" d="M112.42000274658204,327.1 c-3.31,-6.54 -7.36,-13.33 -6.58,-20.62 c0.4700000000000001,-4.41 2.7,-8.41 4.88,-12.28 l9.82,-17.41 c3,3.9 7.94,6.27 9.92,10.77 c3.18,7.23 -3,15.23 -2.67,23.12 c0.22000000000000006,6.07 4.25,11.6 4,17.67 c-0.16000000000000006,4.41 -7.14,18.86 -12.79,18.31 C116.01000274658202,346.37 114.30000274658204,330.8 112.42000274658204,327.1 z"/><path id="svg_138" fill="#e76767" fill-opacity="1" d="M112.42000274658204,327.1 c-3.31,-6.54 -7.36,-13.33 -6.58,-20.62 c0.47000000000000014,-4.41 2.7,-8.41 4.88,-12.28 l9.82,-17.41 c3,3.9 7.94,6.27 9.92,10.77 c3.18,7.23 -3,15.23 -2.67,23.12 c0.22000000000000008,6.07 4.25,11.6 4,17.67 c-0.1600000000000001,4.41 -7.14,18.86 -12.79,18.31 C116.01000274658202,346.37 114.30000274658204,330.8 112.42000274658204,327.1 z"/><path id="svg_139" fill="#e76767" fill-opacity="1" d="M113.56000274658203,329.09 c-2.51,-2.8600000000000003 -6.24,-4.27 -9.8,-5.59 c-1.6900000000000008,-0.6200000000000004 -3.8600000000000003,-1.13 -5,0.23 a3.14,3.14 0 0 0 0,3.63 a11.34,11.34 0 0 0 2.83,2.6500000000000004 a17.86,17.86 0 0 1 5.25,6.09 c1.27,2.59 1.61,5.54 2.74,8.2 s3.49,5.17 6.37,5.05 a5.74,5.74 0 0 0 4.92,-4.05 c1.12,-3.45 -0.3700000000000002,-5 -2.22,-7.44 C116.60000274658202,335.15 115.85000274658202,331.68 113.56000274658203,329.09 z"/><path id="svg_140" fill="#e76767" fill-opacity="1" d="M146.23000274658204,324.31 c2.23,0 5,0.45 5.6400000000000015,2.6 c0.52,1.8800000000000003 -1.13,3.6100000000000003 -2.7,4.77 c-5.47,4 -12.32,7.07 -15,13.3 c-4.45,10.34 -17.05,3.71 -10.53,-5.24 c2.7,-3.7 5,-8.67 8.36,-11.76 C135.86000274658204,324.41 141.26000274658202,324.25 146.23000274658204,324.31 z"/><path id="svg_137" fill="url(#linear-gradient-44)" d="M113.56000274658203,329.09 c-2.51,-2.8600000000000003 -6.24,-4.27 -9.8,-5.59 c-1.6900000000000006,-0.6200000000000003 -3.8600000000000003,-1.13 -5,0.23 a3.14,3.14 0 0 0 0,3.63 a11.34,11.34 0 0 0 2.83,2.6500000000000004 a17.86,17.86 0 0 1 5.25,6.09 c1.27,2.59 1.61,5.54 2.74,8.2 s3.49,5.17 6.37,5.05 a5.74,5.74 0 0 0 4.92,-4.05 c1.12,-3.45 -0.37000000000000016,-5 -2.22,-7.44 C116.60000274658202,335.15 115.85000274658202,331.68 113.56000274658203,329.09 z"/><path id="svg_128" fill="#68e1fd" d="M146.23000274658204,324.31 c2.23,0 5,0.45 5.640000000000001,2.6 c0.52,1.8800000000000001 -1.13,3.6100000000000003 -2.7,4.77 c-5.47,4 -12.32,7.07 -15,13.3 c-4.45,10.34 -17.05,3.71 -10.53,-5.24 c2.7,-3.7 5,-8.67 8.36,-11.76 C135.86000274658204,324.41 141.26000274658202,324.25 146.23000274658204,324.31 z"/><path id="svg_129" fill="#e76767" fill-opacity="1" d="M146.23000274658204,324.31 c2.23,0 5,0.45 5.640000000000001,2.6 c0.52,1.8800000000000001 -1.13,3.6100000000000003 -2.7,4.77 c-5.47,4 -12.32,7.07 -15,13.3 c-4.45,10.34 -17.05,3.71 -10.53,-5.24 c2.7,-3.7 5,-8.67 8.36,-11.76 C135.86000274658204,324.41 141.26000274658202,324.25 146.23000274658204,324.31 z"/><path id="svg_130" fill="#68e1fd" d="M113.56000274658203,329.09 c-2.51,-2.8600000000000003 -6.24,-4.27 -9.8,-5.59 c-1.6900000000000002,-0.6200000000000001 -3.8600000000000003,-1.13 -5,0.23 a3.14,3.14 0 0 0 0,3.63 a11.34,11.34 0 0 0 2.83,2.6500000000000004 a17.86,17.86 0 0 1 5.25,6.09 c1.27,2.59 1.61,5.54 2.74,8.2 s3.49,5.17 6.37,5.05 a5.74,5.74 0 0 0 4.92,-4.05 c1.12,-3.45 -0.37000000000000005,-5 -2.22,-7.44 C116.60000274658202,335.15 115.85000274658202,331.68 113.56000274658203,329.09 z"/><path id="svg_131" fill="url(#linear-gradient-44)" d="M113.56000274658203,329.09 c-2.51,-2.8600000000000003 -6.24,-4.27 -9.8,-5.59 c-1.6900000000000002,-0.6200000000000001 -3.8600000000000003,-1.13 -5,0.23 a3.14,3.14 0 0 0 0,3.63 a11.34,11.34 0 0 0 2.83,2.6500000000000004 a17.86,17.86 0 0 1 5.25,6.09 c1.27,2.59 1.61,5.54 2.74,8.2 s3.49,5.17 6.37,5.05 a5.74,5.74 0 0 0 4.92,-4.05 c1.12,-3.45 -0.37000000000000005,-5 -2.22,-7.44 C116.60000274658202,335.15 115.85000274658202,331.68 113.56000274658203,329.09 z"/><path id="svg_135" fill="#e76767" fill-opacity="1" d="M113.56000274658203,329.09 c-2.51,-2.8600000000000003 -6.24,-4.27 -9.8,-5.59 c-1.6900000000000004,-0.6200000000000002 -3.8600000000000003,-1.13 -5,0.23 a3.14,3.14 0 0 0 0,3.63 a11.34,11.34 0 0 0 2.83,2.6500000000000004 a17.86,17.86 0 0 1 5.25,6.09 c1.27,2.59 1.61,5.54 2.74,8.2 s3.49,5.17 6.37,5.05 a5.74,5.74 0 0 0 4.92,-4.05 c1.12,-3.45 -0.3700000000000001,-5 -2.22,-7.44 C116.60000274658202,335.15 115.85000274658202,331.68 113.56000274658203,329.09 z"/><path id="svg_132" fill="#68e1fd" d="M135.27000274658204,345.07 l-3.37,31.53 h-3.5700000000000003 c-2.75,-1.56 -5.53,-3.09 -8.31,-4.65 l-8.1,-4.54 l-2.87,-22.34 z"/><path id="svg_133" fill="url(#linear-gradient-45)" d="M135.27000274658204,345.07 l-3.37,31.53 h-3.5700000000000003 c-2.75,-1.56 -5.53,-3.09 -8.31,-4.65 l-8.1,-4.54 l-2.87,-22.34 z"/><path id="svg_134" fill="#e76767" fill-opacity="1" d="M135.27000274658204,345.07 l-3.37,31.53 h-3.5700000000000003 c-2.75,-1.56 -5.53,-3.09 -8.31,-4.65 l-8.1,-4.54 l-2.87,-22.34 z"/></g></svg>